<svg width="124" height="34" viewBox="0 0 124 34" fill="none" xmlns="http://www.w3.org/2000/svg">
<path d="M0.197266 33H21.9502V25.6172H9.51367V1.29346H0.197266V33ZM39.3306 33.5713C49.1963 33.5713 55.3267 27.2651 55.3267 17.1577V17.1138C55.3267 7.02832 49.1743 0.722168 39.3306 0.722168C29.5527 0.722168 23.3784 7.00635 23.3784 17.1138V17.1577C23.3784 27.2871 29.5088 33.5713 39.3306 33.5713ZM39.3306 25.9688C35.4194 25.9688 32.8706 22.6289 32.8706 17.1577V17.1138C32.8706 11.6426 35.4414 8.32471 39.3306 8.32471C43.2856 8.32471 45.8345 11.6646 45.8345 17.1138V17.1577C45.8345 22.563 43.3516 25.9688 39.3306 25.9688ZM74.2012 33.5713C83.4077 33.5713 88.8789 28.21 88.8789 19.5088V15.2241H74.377V21.6401H79.9141L79.8701 21.9697C79.5405 24.4966 77.4531 25.9688 74.4209 25.9688C70.334 25.9688 67.6753 22.7607 67.6753 17.0039V16.9819C67.6753 11.3569 70.0044 8.32471 73.9595 8.32471C76.6401 8.32471 78.6396 9.59912 79.2769 11.7085L79.3428 11.9282H88.5054L88.4834 11.7085C87.8462 5.40234 81.8696 0.722168 73.9155 0.722168C64.1597 0.722168 58.1831 6.69873 58.1831 17.0918V17.1138C58.1831 27.6606 64.1377 33.5713 74.2012 33.5713ZM107.753 33.5713C117.619 33.5713 123.75 27.2651 123.75 17.1577V17.1138C123.75 7.02832 117.597 0.722168 107.753 0.722168C97.9756 0.722168 91.8013 7.00635 91.8013 17.1138V17.1577C91.8013 27.2871 97.9316 33.5713 107.753 33.5713ZM107.753 25.9688C103.842 25.9688 101.293 22.6289 101.293 17.1577V17.1138C101.293 11.6426 103.864 8.32471 107.753 8.32471C111.708 8.32471 114.257 11.6646 114.257 17.1138V17.1577C114.257 22.563 111.774 25.9688 107.753 25.9688Z" fill="#0D3166"/>
</svg>
