<svg width="20" height="20" viewBox="0 0 20 20" fill="none" xmlns="http://www.w3.org/2000/svg">
<path opacity="0.4" d="M14.1871 0H5.81291C2.17108 0 0 2.17108 0 5.81291V14.1871C0 17.8289 2.17108 20 5.81291 20H14.1871C17.8289 20 20 17.8289 20 14.1871V5.81291C20 2.17108 17.8289 0 14.1871 0Z" fill="#7D8695"/>
<path d="M10.4881 13.9687L10.4881 4.80409C10.4881 4.44391 10.8483 4.2038 11.1785 4.34387C12.3891 4.86413 13.9699 5.34435 15.0705 5.48442L15.2606 5.50445C15.8709 5.58449 16.3711 6.15477 16.3711 6.77508L16.3711 14.4789C16.3711 15.2393 15.7508 15.8096 14.9904 15.7496C13.7398 15.6495 11.8888 15.0492 10.7283 14.3889C10.5782 14.3188 10.4881 14.1488 10.4881 13.9687Z" fill="#7D8695"/>
<path d="M3.60924 14.359L3.60924 6.78527C3.60924 6.16496 4.10947 5.59465 4.71978 5.51461L4.92991 5.49462C6.02045 5.34454 7.59123 4.8743 8.80184 4.36404C9.132 4.22397 9.49219 4.46409 9.49219 4.82427L9.49219 13.9789C9.49219 14.159 9.40214 14.329 9.24206 14.4191C8.08148 15.0694 6.27056 15.6497 5.03995 15.7598L4.99995 15.7598C4.22956 15.7498 3.60924 15.1294 3.60924 14.359Z" fill="#7D8695"/>
</svg>
