<svg width="32" height="32" viewBox="0 0 32 32" fill="none" xmlns="http://www.w3.org/2000/svg">
<path opacity="0.4" d="M7.40806 32H24.5919C29.1175 32 30.9211 29.296 31.1343 26L31.9869 12.784C32.2165 9.328 29.3962 6.4 25.8381 6.4C24.8379 6.4 23.9197 5.84 23.4606 4.976L22.28 2.656C21.5257 1.2 19.5581 0 17.8856 0H14.1308C12.4419 0 10.4743 1.2 9.72001 2.656L8.53944 4.976C8.08033 5.84 7.16211 6.4 6.1619 6.4C2.60378 6.4 -0.216471 9.328 0.0130847 12.784L0.86572 26C1.06248 29.296 2.88253 32 7.40806 32Z" fill="#7D8695"/>
<path d="M18.4613 10.7965H13.5423C12.87 10.7965 12.3125 10.2525 12.3125 9.59648C12.3125 8.94048 12.87 8.39648 13.5423 8.39648H18.4613C19.1336 8.39648 19.6911 8.94048 19.6911 9.59648C19.6911 10.2525 19.1336 10.7965 18.4613 10.7965Z" fill="#7D8695"/>
<path d="M16.0031 25.8082C19.0639 25.8082 21.5452 23.3869 21.5452 20.4002C21.5452 17.4134 19.0639 14.9922 16.0031 14.9922C12.9422 14.9922 10.4609 17.4134 10.4609 20.4002C10.4609 23.3869 12.9422 25.8082 16.0031 25.8082Z" fill="#7D8695"/>
</svg>
