<svg width="16" height="14" viewBox="0 0 16 14" fill="none" xmlns="http://www.w3.org/2000/svg">
<path opacity="0.4" d="M8.39005 0H3.70723C1.03802 0 0 1.064 0 3.8V10.2C0 12.04 0.975587 14 3.70723 14H8.39005C11.0593 14 12.0973 12.936 12.0973 10.2V3.8C12.0973 1.064 11.0593 0 8.39005 0Z" fill="#0064FA"/>
<path d="M7.22119 6.50409C8.03155 6.50409 8.68847 5.83073 8.68847 5.00009C8.68847 4.16946 8.03155 3.49609 7.22119 3.49609C6.41083 3.49609 5.75391 4.16946 5.75391 5.00009C5.75391 5.83073 6.41083 6.50409 7.22119 6.50409Z" fill="#0064FA"/>
<path d="M15.1415 2.33609C14.8215 2.16809 14.1503 1.97609 13.2371 2.63209L12.082 3.46409C12.0898 3.57609 12.0976 3.68009 12.0976 3.80009V10.2001C12.0976 10.3201 12.082 10.4241 12.082 10.5361L13.2371 11.3681C13.721 11.7201 14.1425 11.8321 14.4781 11.8321C14.7668 11.8321 14.9932 11.7521 15.1415 11.6721C15.4615 11.5041 16 11.0481 16 9.90409V4.10409C16 2.96009 15.4615 2.50409 15.1415 2.33609Z" fill="#0064FA"/>
</svg>
