<svg width="8" height="14" viewBox="0 0 8 14" fill="none" xmlns="http://www.w3.org/2000/svg">
<path d="M2.90448 9.6042H5.08827C6.9081 9.6042 8 8.4321 8 6.99955V3.68513C8 3.00141 7.37398 2.44141 6.60965 2.44141H1.39039C0.62606 2.44141 3.61693e-05 3.00141 3.61693e-05 3.68513V6.99955C-0.00724315 8.4321 1.08465 9.6042 2.90448 9.6042Z" fill="#0064FA"/>
<path opacity="0.4" d="M2.7208 0.488372V2.44186H1.62891V0.488372C1.62891 0.221395 1.8764 0 2.17486 0C2.47331 0 2.7208 0.221395 2.7208 0.488372Z" fill="#0064FA"/>
<path opacity="0.4" d="M6.36143 0.488372V2.44186H5.26953V0.488372C5.26953 0.221395 5.51703 0 5.81548 0C6.11393 0 6.36143 0.221395 6.36143 0.488372Z" fill="#0064FA"/>
<path opacity="0.4" d="M4.54112 9.60547V13.5124C4.54112 13.7794 4.29362 14.0008 3.99517 14.0008C3.69672 14.0008 3.44922 13.7794 3.44922 13.5124V9.60547H4.54112Z" fill="#0064FA"/>
</svg>
