<svg width="14" height="14" viewBox="0 0 14 14" fill="none" xmlns="http://www.w3.org/2000/svg">
<path opacity="0.4" d="M9.93097 0H4.06904C1.51976 0 0 1.51976 0 4.06904V9.93097C0 12.4802 1.51976 14 4.06904 14H9.93097C12.4802 14 14 12.4802 14 9.93097V4.06904C14 1.51976 12.4802 0 9.93097 0Z" fill="#0064FA"/>
<path d="M7.34287 9.77769L7.34287 3.36247C7.34287 3.11035 7.595 2.94227 7.82612 3.04032C8.67354 3.4045 9.7801 3.74066 10.5505 3.83871L10.6836 3.85273C11.1108 3.90875 11.4609 4.30795 11.4609 4.74216L11.4609 10.1349C11.4609 10.6671 11.0267 11.0663 10.4945 11.0243C9.61901 10.9543 8.32336 10.5341 7.51095 10.0718C7.4059 10.0228 7.34287 9.90375 7.34287 9.77769Z" fill="#0064FA"/>
<path d="M2.52647 10.0507L2.52647 4.7491C2.52647 4.31489 2.87663 3.91567 3.30385 3.85965L3.45093 3.84565C4.21432 3.74059 5.31386 3.41143 6.16129 3.05425C6.3924 2.9562 6.64453 3.12428 6.64453 3.3764L6.64453 9.78463C6.64453 9.91069 6.5815 10.0297 6.46944 10.0928C5.65704 10.548 4.38939 10.9542 3.52796 11.0313L3.49996 11.0313C2.96069 11.0242 2.52647 10.59 2.52647 10.0507Z" fill="#0064FA"/>
</svg>
