<svg width="15" height="14" viewBox="0 0 15 14" fill="none" xmlns="http://www.w3.org/2000/svg">
<path opacity="0.4" d="M0.437504 12.1328H9.49808C9.73968 12.1328 9.93558 12.3825 9.93558 12.5849V13.5474C9.93558 13.797 9.73968 13.9995 9.49808 13.9995H0.437504C0.195899 13.9995 0 13.7498 0 13.5474V12.5849C0 12.3352 0.195899 12.1328 0.437504 12.1328Z" fill="#0064FA"/>
<path opacity="0.4" d="M2.71094 1.86719H7.22697V3.73385H2.71094V1.86719Z" fill="#0064FA"/>
<path opacity="0.4" d="M2.71094 8.39961C2.71318 8.73152 2.88584 9.03718 3.16437 9.20246C3.44289 9.36775 3.78547 9.36775 4.06397 9.20246C4.3425 9.03717 4.51515 8.73152 4.5174 8.39961C4.5174 8.11031 4.09395 7.4109 3.61417 6.78906C3.13527 7.40764 2.71094 8.10222 2.71094 8.39961Z" fill="#0064FA"/>
<path d="M8.58217 0H1.35636C1.117 0.000706385 0.887704 0.0992979 0.718452 0.274168C0.549213 0.449047 0.4538 0.685977 0.453125 0.93333V11.1997H9.48545V0.93333C9.48476 0.685997 9.38935 0.44906 9.22012 0.274168C9.05088 0.0992902 8.82159 0.000697498 8.58222 0H8.58217ZM3.61438 10.2667C3.13547 10.2661 2.67629 10.0693 2.33762 9.7193C1.99894 9.36934 1.80841 8.89486 1.80791 8.4C1.80791 7.49403 3.03262 6.03778 3.27832 5.75493C3.36612 5.66037 3.4875 5.60689 3.61435 5.60689C3.7412 5.60689 3.8626 5.66037 3.95038 5.75493C4.19608 6.03767 5.42079 7.49392 5.42079 8.4C5.4203 8.89486 5.22977 9.36934 4.89119 9.7193C4.55251 10.0693 4.09333 10.266 3.61433 10.2667H3.61438ZM7.67866 10.2667H6.32395C6.16369 10.2649 6.01622 10.1756 5.93654 10.0319C5.85687 9.88824 5.85686 9.71166 5.93654 9.56795C6.01623 9.42424 6.16369 9.33495 6.32395 9.33333H7.67883C7.83909 9.33495 7.98656 9.42425 8.06624 9.56795C8.14591 9.71165 8.14592 9.88823 8.06624 10.0319C7.98655 10.1757 7.83909 10.2649 7.67883 10.2667H7.67866ZM7.67866 8.4H6.32395C6.16369 8.39838 6.01622 8.30908 5.93654 8.16528C5.85686 8.02158 5.85686 7.845 5.93654 7.70129C6.01623 7.55758 6.16369 7.46829 6.32395 7.46667H7.67883C7.83909 7.46829 7.98656 7.55759 8.06624 7.70129C8.14591 7.84499 8.14592 8.02157 8.06624 8.16528C7.98655 8.30908 7.83909 8.39838 7.67883 8.4H7.67866ZM7.67866 6.53334L6.32395 6.53324C6.16369 6.53162 6.01622 6.44232 5.93654 6.29862C5.85687 6.15492 5.85686 5.97834 5.93654 5.83463C6.01623 5.69083 6.16369 5.60152 6.32395 5.59991H7.67883C7.83909 5.60152 7.98656 5.69083 8.06624 5.83463C8.14592 5.97832 8.14592 6.15491 8.06624 6.29862C7.98655 6.44233 7.83909 6.53162 7.67883 6.53324L7.67866 6.53334ZM8.13021 4.20008L8.13031 4.19998C8.13031 4.32379 8.08275 4.44246 7.99808 4.52994C7.91332 4.61753 7.79847 4.66668 7.67865 4.66658H2.25936C2.13953 4.66668 2.02469 4.61754 1.93993 4.52994C1.85526 4.44245 1.8077 4.32378 1.8077 4.19998V1.39991C1.8077 1.27609 1.85526 1.15742 1.93993 1.06984C2.0246 0.982346 2.13954 0.933201 2.25936 0.933201H7.67865C7.79838 0.933201 7.91332 0.982344 7.99798 1.06984C8.08275 1.15743 8.13031 1.2761 8.13021 1.39991L8.13021 4.20008Z" fill="#0064FA"/>
<path d="M13.551 3.73242H12.6791C12.5617 3.73252 12.4489 3.77975 12.3647 3.86411L11.4302 4.80199C11.3425 4.88968 11.293 5.01047 11.293 5.1365V6.53241C11.2933 6.77984 11.3885 7.01709 11.5578 7.19206C11.7272 7.36704 11.9567 7.46553 12.1962 7.46584H13.0994C13.3389 7.46554 13.5685 7.36705 13.7378 7.19206C13.9071 7.01707 14.0024 6.77984 14.0027 6.53241V4.19914C14.0027 4.07532 13.9551 3.95665 13.8704 3.86918C13.7857 3.78159 13.6708 3.73242 13.551 3.73242Z" fill="#0064FA"/>
<path opacity="0.4" d="M12.1948 5.13435C12.1 5.13435 12.0076 5.10347 11.9308 5.04615C11.8539 4.98883 11.7964 4.908 11.7665 4.81517L11.3484 3.51957L10.9722 3.13076C10.858 3.01279 10.8135 2.84093 10.8553 2.67989C10.897 2.51884 11.0187 2.39301 11.1746 2.34992C11.3305 2.30673 11.4968 2.35275 11.6109 2.47071L12.0625 2.93742V2.93732C12.1119 2.98858 12.1492 3.05094 12.1714 3.11966L12.623 4.5198C12.6688 4.66208 12.6458 4.81848 12.5609 4.94019C12.4761 5.06188 12.3399 5.13414 12.1948 5.13434L12.1948 5.13435Z" fill="#0064FA"/>
<path opacity="0.4" d="M11.7443 12.134C11.3851 12.1336 11.0407 11.986 10.7867 11.7235C10.5327 11.4611 10.3899 11.1052 10.3895 10.734V10.4297V10.4298C10.3893 10.34 10.3188 10.2674 10.2319 10.2674H9.48623C9.32587 10.2657 9.1785 10.1764 9.09882 10.0327C9.01915 9.88897 9.01914 9.71238 9.09882 9.56867C9.17851 9.42496 9.32588 9.33567 9.48623 9.33405H10.232C10.5132 9.33436 10.7828 9.4499 10.9816 9.65526C11.1805 9.86072 11.2924 10.1392 11.2927 10.4298V10.7341V10.734C11.2942 10.8997 11.3807 11.052 11.5197 11.1343C11.6589 11.2166 11.8298 11.2166 11.9688 11.1343C12.1079 11.052 12.1943 10.8997 12.1959 10.734V7.00056C12.1947 6.87604 12.2418 6.75616 12.3266 6.66755C12.4114 6.57905 12.527 6.5293 12.6476 6.5293C12.7681 6.5293 12.8836 6.57905 12.9685 6.66755C13.0532 6.75615 13.1003 6.87603 13.0991 7.00056V10.734C13.0987 11.1052 12.9559 11.4611 12.7019 11.7235C12.4479 11.986 12.1035 12.1336 11.7442 12.134H11.7443Z" fill="#0064FA"/>
</svg>
