<svg width="12" height="14" viewBox="0 0 12 14" fill="none" xmlns="http://www.w3.org/2000/svg">
<path d="M0.606737 14C0.275054 14 0 13.762 0 13.475V0.525C0 0.238 0.275054 0 0.606737 0C0.93842 0 1.21347 0.238 1.21347 0.525V13.475C1.21347 13.762 0.93842 14 0.606737 14Z" fill="#0064FA"/>
<path opacity="0.4" d="M11.0159 7.23095L10.0289 6.37695C9.79434 6.20195 9.65681 5.94295 9.64872 5.65595C9.63254 5.34095 9.77816 5.02595 10.0451 4.79495L11.0159 3.95495C11.8572 3.22695 12.1727 2.52695 11.9058 1.97395C11.6469 1.42795 10.846 1.12695 9.6649 1.12695H0.604289C0.434402 1.13395 0.296875 1.25295 0.296875 1.39995V9.79995C0.296875 9.94695 0.434402 10.066 0.604289 10.066H9.6649C10.8298 10.066 11.6145 9.75795 11.8815 9.20495C12.1485 8.64495 11.8411 7.95195 11.0159 7.23095Z" fill="#0064FA"/>
</svg>
