<svg width="14" height="14" viewBox="0 0 14 14" fill="none" xmlns="http://www.w3.org/2000/svg">
<path opacity="0.4" d="M13.9996 4.06709V8.33018L12.8586 7.35016C12.3127 6.88115 11.4307 6.88115 10.8847 7.35016L7.97278 9.84921C7.4268 10.3182 6.54482 10.3182 5.99884 9.84921L5.76084 9.65321C5.26386 9.2192 4.47288 9.1772 3.91289 9.55521L0.468987 11.8653L0.391989 11.9213C0.132996 11.3612 0 10.6962 0 9.93321V4.06709C0 1.51903 1.51896 0 4.06689 0H9.93273C12.4807 0 13.9996 1.51903 13.9996 4.06709Z" fill="white"/>
<path d="M4.90033 5.86723C5.82041 5.86723 6.56628 5.12132 6.56628 4.20119C6.56628 3.28107 5.82041 2.53516 4.90033 2.53516C3.98025 2.53516 3.23438 3.28107 3.23438 4.20119C3.23438 5.12132 3.98025 5.86723 4.90033 5.86723Z" fill="white"/>
<path d="M13.9983 8.32983V9.93286C13.9983 12.4809 12.4793 13.9999 9.93137 13.9999H4.06552C2.28057 13.9999 0.992609 13.2509 0.390625 11.9209L0.467623 11.8649L3.91153 9.55485C4.47151 9.17684 5.26249 9.21884 5.75948 9.65285L5.99747 9.84886C6.54346 10.3179 7.42543 10.3179 7.97142 9.84886L10.8833 7.3498C11.4293 6.88079 12.3113 6.88079 12.8573 7.3498L13.9983 8.32983Z" fill="white"/>
</svg>
