<svg width="12" height="14" viewBox="0 0 12 14" fill="none" xmlns="http://www.w3.org/2000/svg">
<path opacity="0.4" d="M11.831 4.57561C11.1211 1.42049 8.39662 0 6.00338 0C6.00338 0 6.00338 0 5.99662 0C3.61013 0 0.878861 1.41366 0.169 4.56878C-0.621988 8.09268 1.51436 11.0771 3.44788 12.9551C4.1645 13.6517 5.08394 14 6.00338 14C6.92282 14 7.84226 13.6517 8.55212 12.9551C10.4856 11.0771 12.622 8.09951 11.831 4.57561Z" fill="#0064FA"/>
<path d="M6.00458 7.99775C7.18072 7.99775 8.13417 7.03462 8.13417 5.84653C8.13417 4.65845 7.18072 3.69531 6.00458 3.69531C4.82845 3.69531 3.875 4.65845 3.875 5.84653C3.875 7.03462 4.82845 7.99775 6.00458 7.99775Z" fill="#0064FA"/>
</svg>
