<svg width="14" height="14" viewBox="0 0 14 14" fill="none" xmlns="http://www.w3.org/2000/svg">
<path opacity="0.4" d="M6.86367 8.5475L4.5711 10.8366C4.31871 10.6126 4.07333 10.3816 3.83496 10.1436C3.11284 9.41555 2.46082 8.65251 1.87892 7.85446C1.30403 7.05642 0.841307 6.25837 0.504784 5.46732C0.168261 4.66927 0 3.90623 0 3.17819C0 2.70216 0.0841307 2.24713 0.252392 1.82711C0.420654 1.40008 0.687068 1.00806 1.05865 0.658039C1.50734 0.217013 1.9981 0 2.51691 0C2.71322 0 2.90952 0.0420025 3.08479 0.126007C3.26708 0.210012 3.42833 0.33602 3.55452 0.51803L5.18105 2.80717C5.30725 2.98218 5.39839 3.14318 5.46149 3.29719C5.52458 3.4442 5.55964 3.59121 5.55964 3.72422C5.55964 3.89223 5.51056 4.06024 5.41241 4.22125C5.32127 4.38226 5.18806 4.55027 5.0198 4.71828L4.48697 5.27131C4.40985 5.34831 4.3748 5.43932 4.3748 5.55133C4.3748 5.60733 4.38181 5.65633 4.39583 5.71234C4.41686 5.76834 4.4379 5.81034 4.45192 5.85234C4.57811 6.08336 4.79545 6.38438 5.10393 6.7484C5.41942 7.11242 5.75594 7.48344 6.12051 7.85446C6.3729 8.09948 6.61828 8.33749 6.86367 8.5475Z" fill="#0064FA"/>
<path d="M14.0006 11.429C14.0006 11.625 13.9655 11.828 13.8954 12.024C13.8744 12.08 13.8534 12.136 13.8253 12.192C13.7061 12.444 13.5519 12.682 13.3486 12.906C13.0051 13.2841 12.6265 13.5571 12.1988 13.7321C12.1918 13.7321 12.1848 13.7391 12.1778 13.7391C11.7641 13.9071 11.3154 13.9981 10.8317 13.9981C10.1166 13.9981 9.35238 13.8301 8.54612 13.4871C7.73987 13.1441 6.93362 12.682 6.13438 12.101C5.86095 11.898 5.58753 11.695 5.32812 11.478L7.62069 9.18883C7.81699 9.33583 7.99226 9.44784 8.13949 9.52485C8.17455 9.53885 8.21661 9.55985 8.26569 9.58085C8.32178 9.60185 8.37786 9.60885 8.44096 9.60885C8.56015 9.60885 8.65129 9.56685 8.72841 9.48984L9.26124 8.96481C9.43651 8.7898 9.60477 8.65679 9.76602 8.57279C9.92727 8.47478 10.0885 8.42578 10.2638 8.42578C10.397 8.42578 10.5372 8.45378 10.6915 8.51679C10.8457 8.57979 11.0069 8.6708 11.1822 8.7898L13.5028 10.4349C13.6851 10.5609 13.8113 10.7079 13.8884 10.8829C13.9585 11.0579 14.0006 11.2329 14.0006 11.429Z" fill="#0064FA"/>
</svg>
