<svg width="20" height="20" viewBox="0 0 20 20" fill="none" xmlns="http://www.w3.org/2000/svg">
<path opacity="0.4" d="M0.625021 17.334H13.569C13.9142 17.334 14.194 17.6906 14.194 17.9798V19.3549C14.194 19.7115 13.9142 20.0007 13.569 20.0007H0.625021C0.279863 20.0007 0 19.6441 0 19.3549V17.9798C0 17.6232 0.279863 17.334 0.625021 17.334Z" fill="#7D8695"/>
<path opacity="0.4" d="M3.87109 2.66797H10.3227V5.33469H3.87109V2.66797Z" fill="#7D8695"/>
<path opacity="0.4" d="M3.87109 12.0001C3.8743 12.4742 4.12096 12.9109 4.51887 13.147C4.91677 13.3832 5.40618 13.3832 5.80405 13.147C6.20196 12.9109 6.44861 12.4742 6.45182 12.0001C6.45182 11.5868 5.84687 10.5876 5.16146 9.69922C4.47729 10.5829 3.87109 11.5752 3.87109 12.0001Z" fill="#7D8695"/>
<path d="M12.2656 0H1.94271C1.60076 0.00100915 1.27319 0.141858 1.03139 0.391679C0.789616 0.641512 0.653308 0.979991 0.652344 1.33336V16H13.556V1.33336C13.555 0.980021 13.4187 0.64153 13.1769 0.391679C12.9352 0.141847 12.6076 0.000996451 12.2656 0H12.2656ZM5.16853 14.667C4.48436 14.6662 3.82838 14.385 3.34454 13.8851C2.8607 13.3851 2.58852 12.7073 2.5878 12.0003C2.5878 10.706 4.33743 8.62561 4.68844 8.22153C4.81386 8.08645 4.98728 8.01005 5.16849 8.01005C5.34971 8.01005 5.52314 8.08645 5.64855 8.22153C5.99956 8.62547 7.74919 10.7059 7.74919 12.0003C7.74849 12.7073 7.4763 13.3851 6.99259 13.8851C6.50875 14.385 5.85277 14.6661 5.16846 14.667H5.16853ZM10.9748 14.667H9.03944C8.8105 14.6646 8.59982 14.537 8.486 14.3317C8.37217 14.1264 8.37215 13.8741 8.486 13.6688C8.59984 13.4635 8.8105 13.336 9.03944 13.3337H10.975C11.204 13.336 11.4147 13.4636 11.5285 13.6688C11.6423 13.8741 11.6423 14.1264 11.5285 14.3317C11.4146 14.537 11.204 14.6646 10.975 14.667H10.9748ZM10.9748 12.0003H9.03944C8.8105 11.998 8.59982 11.8704 8.486 11.665C8.37215 11.4597 8.37215 11.2074 8.486 11.0021C8.59984 10.7968 8.8105 10.6692 9.03944 10.6669H10.975C11.204 10.6692 11.4147 10.7968 11.5285 11.0021C11.6423 11.2074 11.6423 11.4597 11.5285 11.665C11.4146 11.8704 11.204 11.998 10.975 12.0003H10.9748ZM10.9748 9.33357L9.03944 9.33343C8.8105 9.33112 8.59982 9.20354 8.486 8.99825C8.37217 8.79297 8.37215 8.5407 8.486 8.33539C8.59984 8.12996 8.8105 8.00238 9.03944 8.00007H10.975C11.204 8.00238 11.4147 8.12996 11.5285 8.33539C11.6423 8.54068 11.6423 8.79295 11.5285 8.99825C11.4146 9.20356 11.204 9.33112 10.975 9.33343L10.9748 9.33357ZM11.6199 6.00026L11.62 6.00012C11.62 6.177 11.5521 6.34654 11.4311 6.47151C11.31 6.59664 11.146 6.66685 10.9748 6.66671H3.23274C3.06156 6.66685 2.89749 6.59665 2.77641 6.47151C2.65545 6.34652 2.5875 6.17699 2.5875 6.00012V1.99992C2.5875 1.82303 2.65545 1.6535 2.77641 1.52838C2.89736 1.40339 3.06157 1.33318 3.23274 1.33318H10.9748C11.1458 1.33318 11.31 1.40338 11.431 1.52838C11.5521 1.65351 11.62 1.82304 11.6199 1.99992L11.6199 6.00026Z" fill="#7D8695"/>
<path d="M19.3547 5.33203H18.1092C17.9415 5.33218 17.7803 5.39964 17.6599 5.52017L16.3249 6.86002C16.1996 6.9853 16.1289 7.15786 16.1289 7.33791V9.33211C16.1293 9.68559 16.2653 10.0245 16.5073 10.2745C16.7492 10.5245 17.0772 10.6652 17.4193 10.6656H18.7096C19.0517 10.6652 19.3797 10.5245 19.6216 10.2745C19.8635 10.0245 19.9996 9.68559 20 9.33211V5.99879C20 5.8219 19.9321 5.65237 19.8111 5.5274C19.69 5.40227 19.5259 5.33203 19.3547 5.33203Z" fill="#7D8695"/>
<path opacity="0.4" d="M17.4161 7.3346C17.2808 7.3346 17.1488 7.29049 17.039 7.20861C16.9292 7.12672 16.847 7.01124 16.8043 6.87862L16.2071 5.02773L15.6695 4.47226C15.5064 4.30374 15.4428 4.05822 15.5025 3.82815C15.5621 3.59806 15.736 3.41831 15.9587 3.35675C16.1814 3.29505 16.419 3.36079 16.582 3.52932L17.2271 4.19605V4.19591C17.2977 4.26914 17.351 4.35823 17.3827 4.45641L18.0279 6.45666C18.0934 6.65993 18.0604 6.88336 17.9392 7.05722C17.8181 7.23108 17.6235 7.3343 17.4161 7.33459L17.4161 7.3346Z" fill="#7D8695"/>
<path opacity="0.4" d="M16.7826 17.3351C16.2695 17.3345 15.7776 17.1236 15.4147 16.7486C15.0518 16.3737 14.8477 15.8653 14.8471 15.335V14.9003V14.9005C14.8469 14.7722 14.7463 14.6684 14.6221 14.6684H13.5568C13.3277 14.6659 13.1172 14.5383 13.0033 14.3331C12.8895 14.1278 12.8895 13.8755 13.0033 13.6702C13.1172 13.4649 13.3277 13.3373 13.5568 13.335H14.6223C15.0239 13.3355 15.4091 13.5005 15.6931 13.7939C15.9772 14.0874 16.1371 14.4853 16.1375 14.9005V15.3351V15.335C16.1397 15.5717 16.2632 15.7892 16.4619 15.9069C16.6607 16.0245 16.9048 16.0245 17.1035 15.9069C17.3022 15.7892 17.4256 15.5717 17.4278 15.335V10.0014C17.4262 9.82348 17.4934 9.65222 17.6145 9.52563C17.7358 9.3992 17.9008 9.32812 18.0731 9.32812C18.2453 9.32812 18.4103 9.3992 18.5316 9.52563C18.6526 9.6522 18.7199 9.82347 18.7182 10.0014V15.335C18.7177 15.8653 18.5136 16.3737 18.1507 16.7486C17.7878 17.1236 17.2959 17.3345 16.7826 17.3351H16.7826Z" fill="#7D8695"/>
</svg>
