<svg width="77" height="14" viewBox="0 0 77 14" fill="none" xmlns="http://www.w3.org/2000/svg">
<path d="M7.03736 1.86651L8.09336 3.99572C8.23736 4.29212 8.62136 4.57642 8.94536 4.63086L10.8594 4.95145C12.0834 5.15712 12.3714 6.05236 11.4894 6.9355L10.0014 8.43563C9.74936 8.68968 9.61136 9.17964 9.68936 9.53048L10.1154 11.3875C10.4514 12.8574 9.67736 13.426 8.38736 12.6578L6.59336 11.5871C6.26936 11.3935 5.73536 11.3935 5.40536 11.5871L3.61136 12.6578C2.32736 13.426 1.54736 12.8513 1.88336 11.3875L2.30936 9.53048C2.38736 9.17964 2.24936 8.68968 1.99736 8.43563L0.509359 6.9355C-0.366641 6.05236 -0.0846404 5.15712 1.13936 4.95145L3.05336 4.63086C3.37136 4.57642 3.75536 4.29212 3.89936 3.99572L4.95536 1.86651C5.53136 0.711164 6.46736 0.711164 7.03736 1.86651Z" fill="#D1A60B"/>
<path d="M23.0374 1.86651L24.0934 3.99572C24.2374 4.29212 24.6214 4.57642 24.9454 4.63086L26.8594 4.95145C28.0834 5.15712 28.3714 6.05236 27.4894 6.9355L26.0014 8.43563C25.7494 8.68968 25.6114 9.17964 25.6894 9.53048L26.1154 11.3875C26.4514 12.8574 25.6774 13.426 24.3874 12.6578L22.5934 11.5871C22.2694 11.3935 21.7354 11.3935 21.4054 11.5871L19.6114 12.6578C18.3274 13.426 17.5474 12.8513 17.8834 11.3875L18.3094 9.53048C18.3874 9.17964 18.2494 8.68968 17.9974 8.43563L16.5094 6.9355C15.6334 6.05236 15.9154 5.15712 17.1394 4.95145L19.0534 4.63086C19.3714 4.57642 19.7554 4.29212 19.8994 3.99572L20.9554 1.86651C21.5314 0.711164 22.4674 0.711164 23.0374 1.86651Z" fill="#D1A60B"/>
<path d="M55.0374 1.86651L56.0934 3.99572C56.2374 4.29212 56.6214 4.57642 56.9454 4.63086L58.8594 4.95145C60.0834 5.15712 60.3714 6.05236 59.4894 6.9355L58.0014 8.43563C57.7494 8.68968 57.6114 9.17964 57.6894 9.53048L58.1154 11.3875C58.4514 12.8574 57.6774 13.426 56.3874 12.6578L54.5934 11.5871C54.2694 11.3935 53.7354 11.3935 53.4054 11.5871L51.6114 12.6578C50.3274 13.426 49.5474 12.8513 49.8834 11.3875L50.3094 9.53048C50.3874 9.17964 50.2494 8.68968 49.9974 8.43563L48.5094 6.9355C47.6334 6.05236 47.9154 5.15712 49.1394 4.95145L51.0534 4.63086C51.3714 4.57642 51.7554 4.29212 51.8994 3.99572L52.9554 1.86651C53.5314 0.711164 54.4674 0.711164 55.0374 1.86651Z" fill="#D1A60B"/>
<path d="M39.0374 1.86651L40.0934 3.99572C40.2374 4.29212 40.6214 4.57642 40.9454 4.63086L42.8594 4.95145C44.0834 5.15712 44.3714 6.05236 43.4894 6.9355L42.0014 8.43563C41.7494 8.68968 41.6114 9.17964 41.6894 9.53048L42.1154 11.3875C42.4514 12.8574 41.6774 13.426 40.3874 12.6578L38.5934 11.5871C38.2694 11.3935 37.7354 11.3935 37.4054 11.5871L35.6114 12.6578C34.3274 13.426 33.5474 12.8513 33.8834 11.3875L34.3094 9.53048C34.3874 9.17964 34.2494 8.68968 33.9974 8.43563L32.5094 6.9355C31.6334 6.05236 31.9154 5.15712 33.1394 4.95145L35.0534 4.63086C35.3714 4.57642 35.7554 4.29212 35.8994 3.99572L36.9554 1.86651C37.5314 0.711164 38.4674 0.711164 39.0374 1.86651Z" fill="#D1A60B"/>
<path d="M71.0374 1.86651L72.0934 3.99572C72.2374 4.29212 72.6214 4.57642 72.9454 4.63086L74.8594 4.95145C76.0834 5.15712 76.3714 6.05236 75.4894 6.9355L74.0014 8.43563C73.7494 8.68968 73.6114 9.17964 73.6894 9.53048L74.1154 11.3875C74.4514 12.8574 73.6774 13.426 72.3874 12.6578L70.5934 11.5871C70.2694 11.3935 69.7354 11.3935 69.4054 11.5871L67.6114 12.6578C66.3274 13.426 65.5474 12.8513 65.8834 11.3875L66.3094 9.53048C66.3874 9.17964 66.2494 8.68968 65.9974 8.43563L64.5094 6.9355C63.6334 6.05236 63.9154 5.15712 65.1394 4.95145L67.0534 4.63086C67.3714 4.57642 67.7554 4.29212 67.8994 3.99572L68.9554 1.86651C69.5314 0.711164 70.4674 0.711164 71.0374 1.86651Z" stroke="#D1A60B" stroke-linecap="round" stroke-linejoin="round"/>
</svg>
