<svg width="16" height="16" viewBox="0 0 16 16" fill="none" xmlns="http://www.w3.org/2000/svg">
<path fill-rule="evenodd" clip-rule="evenodd" d="M6.90913 0.727277C6.90913 0.325613 7.23474 0 7.6364 0C11.8563 0 15.2728 3.41654 15.2728 7.6364C15.2728 11.8563 11.8563 15.2728 7.6364 15.2728C3.41654 15.2728 0 11.8563 0 7.6364C0 4.66125 1.69776 2.08903 4.17968 0.827987C4.53777 0.646044 4.97556 0.788841 5.1575 1.14693C5.33944 1.50503 5.19665 1.94281 4.83855 2.12476C2.8259 3.14737 1.45455 5.22971 1.45455 7.6364C1.45455 11.0529 4.21987 13.8183 7.6364 13.8183C11.0529 13.8183 13.8183 11.0529 13.8183 7.6364C13.8183 4.21987 11.0529 1.45455 7.6364 1.45455C7.23474 1.45455 6.90913 1.12894 6.90913 0.727277Z" fill="#B5B5B5"/>
<path fill-rule="evenodd" clip-rule="evenodd" d="M13.3029 13.3048C13.5869 13.0208 14.0474 13.0208 14.3314 13.3048L15.7859 14.7594C16.07 15.0434 16.07 15.5039 15.7859 15.7879C15.5019 16.0719 15.0414 16.0719 14.7574 15.7879L13.3029 14.3333C13.0188 14.0493 13.0188 13.5888 13.3029 13.3048Z" fill="#B5B5B5"/>
</svg>
