<svg width="14" height="14" viewBox="0 0 14 14" fill="none" xmlns="http://www.w3.org/2000/svg">
<path d="M12.0277 9.80664V11.1996C12.0277 12.7396 10.9508 13.9996 9.15598 13.9996H4.84833C3.05347 13.9996 1.97656 12.7396 1.97656 11.1996V9.80664H12.0277Z" fill="#0064FA"/>
<path opacity="0.4" d="M12.0277 2.79997V9.8069H1.97656V2.79997C1.97656 1.25999 3.05347 0 4.84833 0H9.15598C10.9508 0 12.0277 1.25999 12.0277 2.79997Z" fill="#0064FA"/>
<path d="M0.538456 13.1249C0.2441 13.1249 0 12.8869 0 12.5999V1.39999C0 1.113 0.2441 0.875 0.538456 0.875C0.832812 0.875 1.07691 1.113 1.07691 1.39999V12.5999C1.07691 12.8869 0.832812 13.1249 0.538456 13.1249Z" fill="#0064FA"/>
<path d="M13.4603 13.1249C13.166 13.1249 12.9219 12.8869 12.9219 12.5999V1.39999C12.9219 1.113 13.166 0.875 13.4603 0.875C13.7547 0.875 13.9988 1.113 13.9988 1.39999V12.5999C13.9988 12.8869 13.7547 13.1249 13.4603 13.1249Z" fill="#0064FA"/>
</svg>
