<svg width="18" height="18" viewBox="0 0 18 18" fill="none" xmlns="http://www.w3.org/2000/svg">
<path opacity="0.4" d="M18 5.91523V12.0848C18 16.6179 16.8746 18 13.1831 18H7.11463V14.6609C7.11463 14.2408 6.82651 13.887 6.48438 13.887V4.11302C6.82651 4.11302 7.11463 3.75921 7.11463 3.33907V0H13.1831C16.8746 0 18 1.38206 18 5.91523Z" fill="#7D8695"/>
<path d="M14.8143 8.89202C14.9816 8.72793 15.0407 8.47155 14.9718 8.24593C14.9029 8.01006 14.7159 7.84597 14.4798 7.8152L13.2202 7.62035C13.171 7.6101 13.1316 7.57933 13.112 7.53831L12.5511 6.34868C12.4527 6.13332 12.2362 6 12.0098 6C11.7737 6 11.567 6.13332 11.4588 6.34868L10.8979 7.53831C10.8782 7.58958 10.829 7.62035 10.7798 7.62035L9.52023 7.8152C9.2939 7.84597 9.0971 8.02031 9.02821 8.24593C8.95933 8.4818 9.01837 8.72793 9.18566 8.89202L10.1008 9.815C10.1402 9.84577 10.15 9.9073 10.1402 9.95858L9.92369 11.261C9.88432 11.4969 9.97289 11.743 10.1697 11.8763C10.2779 11.9584 10.396 11.9994 10.5239 11.9994C10.6224 11.9994 10.7208 11.9789 10.8093 11.9276L11.941 11.3123C11.9803 11.2918 12.0394 11.2918 12.0787 11.3123L13.2104 11.9276C13.417 12.0404 13.663 12.0199 13.85 11.8763C14.037 11.7328 14.1354 11.4969 14.096 11.2508L13.8795 9.94832C13.8697 9.89705 13.8893 9.84577 13.9189 9.80475L14.8143 8.89202Z" fill="#7D8695"/>
<path d="M6.48338 4.11302V13.887C6.14124 13.887 5.85313 14.2408 5.85313 14.6609V18H4.8087C1.25226 18 0.0817894 16.6953 0.000756596 12.6265C-0.00824705 12.4165 0.0637822 12.2174 0.18083 12.0737C0.297877 11.9189 0.468946 11.8415 0.631012 11.8415C1.89152 11.8415 2.92694 10.57 2.92694 9.01106C2.92694 7.45209 1.89152 6.16953 0.631012 6.16953C0.450939 6.16953 0.297877 6.09214 0.18083 5.93735C0.0637822 5.79361 -0.00824705 5.58354 0.000756596 5.38452C0.0817894 1.30467 1.25226 0 4.8087 0H5.85313V3.33907C5.85313 3.77027 6.14124 4.11302 6.48338 4.11302Z" fill="#7D8695"/>
</svg>
