<svg width="8" height="8" viewBox="0 0 8 8" fill="none" xmlns="http://www.w3.org/2000/svg">
<path fill-rule="evenodd" clip-rule="evenodd" d="M0 4C0 1.79898 1.79898 0 4 0C6.20102 0 8 1.79898 8 4C8 6.20102 6.20102 8 4 8C1.79898 8 0 6.20102 0 4ZM4 0.888889C2.2899 0.888889 0.888889 2.2899 0.888889 4C0.888889 5.7101 2.2899 7.11111 4 7.11111C5.7101 7.11111 7.11111 5.7101 7.11111 4C7.11111 2.2899 5.7101 0.888889 4 0.888889Z" fill="#7D8695"/>
<path fill-rule="evenodd" clip-rule="evenodd" d="M5.32194 2.679C5.49551 2.85257 5.49551 3.13398 5.32194 3.30754L3.3095 5.31999C3.13593 5.49355 2.85452 5.49355 2.68096 5.31999C2.50739 5.14642 2.50739 4.86501 2.68096 4.69145L4.6934 2.679C4.86697 2.50544 5.14837 2.50544 5.32194 2.679Z" fill="#7D8695"/>
<path fill-rule="evenodd" clip-rule="evenodd" d="M2.68096 2.679C2.85452 2.50544 3.13593 2.50544 3.3095 2.679L5.32194 4.69145C5.49551 4.86501 5.49551 5.14642 5.32194 5.31999C5.14837 5.49355 4.86697 5.49355 4.6934 5.31999L2.68096 3.30754C2.50739 3.13398 2.50739 2.85257 2.68096 2.679Z" fill="#7D8695"/>
</svg>
