<svg width="12" height="14" viewBox="0 0 12 14" fill="none" xmlns="http://www.w3.org/2000/svg">
<path d="M11.9986 1.41436V2.97015C11.9986 3.5359 11.65 4.24308 11.3014 4.59667L8.30328 7.28395C7.88494 7.63754 7.60604 8.34472 7.60604 8.91046V11.9513C7.60604 12.3756 7.32715 12.9414 6.97853 13.1535L6.0024 13.79C5.09599 14.3557 3.84096 13.7193 3.84096 12.5878V8.83974C3.84096 8.34472 3.56207 7.70825 3.28317 7.35467L2.58594 6.61213L6.64386 0H10.6042C11.3711 0 11.9986 0.636461 11.9986 1.41436Z" fill="white"/>
<path opacity="0.4" d="M5.50817 0L1.89648 5.87666L0.627514 4.52595C0.278895 4.17236 0 3.5359 0 3.11159V1.48508C0 0.636461 0.627513 0 1.39447 0H5.50817Z" fill="white"/>
</svg>
