<svg width="19" height="18" viewBox="0 0 19 18" fill="none" xmlns="http://www.w3.org/2000/svg">
<path opacity="0.4" d="M6.32114 0C3.96785 0 2.05469 1.91701 2.05469 4.27502C2.05469 6.58804 3.86007 8.46005 6.21335 8.54105C6.28521 8.53205 6.35706 8.53205 6.41096 8.54105C6.42892 8.54105 6.4379 8.54105 6.45587 8.54105C6.46485 8.54105 6.46485 8.54105 6.47383 8.54105C8.77322 8.46005 10.5786 6.58804 10.5876 4.27502C10.5876 1.91701 8.67442 0 6.32114 0Z" fill="#7D8695"/>
<path d="M10.8862 10.9352C8.3802 9.26119 4.29339 9.26119 1.76945 10.9352C0.62874 11.7002 0 12.7352 0 13.8422C0 14.9492 0.62874 15.9752 1.76047 16.7312C3.01795 17.5772 4.67064 18.0002 6.32333 18.0002C7.97601 18.0002 9.6287 17.5772 10.8862 16.7312C12.0179 15.9662 12.6467 14.9402 12.6467 13.8242C12.6377 12.7172 12.0179 11.6912 10.8862 10.9352Z" fill="#7D8695"/>
<path opacity="0.4" d="M16.1955 4.80669C16.3392 6.5527 15.0997 8.08271 13.3841 8.28971C13.3751 8.28971 13.3751 8.28971 13.3661 8.28971H13.3392C13.2853 8.28971 13.2314 8.28971 13.1865 8.30771C12.3153 8.35271 11.5159 8.07371 10.9141 7.56071C11.8392 6.7327 12.3691 5.4907 12.2614 4.14069C12.1985 3.41168 11.947 2.74568 11.5697 2.17868C11.9111 2.00768 12.3063 1.89968 12.7105 1.86368C14.4709 1.71068 16.0428 3.02468 16.1955 4.80669Z" fill="#7D8695"/>
<path d="M17.9903 13.1306C17.9184 14.0036 17.3615 14.7596 16.4274 15.2726C15.5292 15.7676 14.3975 16.0016 13.2747 15.9746C13.9214 15.3896 14.2987 14.6606 14.3705 13.8866C14.4604 12.7706 13.9304 11.6996 12.8705 10.8446C12.2688 10.3676 11.5682 9.98958 10.8047 9.71058C12.7897 9.13457 15.2867 9.52158 16.8226 10.7636C17.649 11.4296 18.0711 12.2666 17.9903 13.1306Z" fill="#7D8695"/>
</svg>
