<svg width="18" height="18" viewBox="0 0 18 18" fill="none" xmlns="http://www.w3.org/2000/svg">
<path opacity="0.4" d="M14.3973 7.89784V11.4921C14.3973 11.7257 14.3883 11.9503 14.3613 12.166C14.1541 14.5921 12.7215 15.7961 10.0817 15.7961H9.72135C9.49611 15.7961 9.27987 15.904 9.14473 16.0837L8.06359 17.5214C7.58608 18.1593 6.81125 18.1593 6.33374 17.5214L5.25258 16.0837C5.13545 15.9309 4.87419 15.7961 4.67598 15.7961H4.3156C1.44154 15.7961 0 15.0863 0 11.4921V7.89784C0 5.26507 1.2163 3.83637 3.63988 3.6297C3.85611 3.60274 4.08135 3.59375 4.3156 3.59375H10.0817C12.9558 3.59375 14.3973 5.03145 14.3973 7.89784Z" fill="#7D8695"/>
<path d="M7.19783 10.7815C6.6933 10.7815 6.29688 10.3771 6.29688 9.88293C6.29688 9.38872 6.70231 8.98438 7.19783 8.98438C7.69336 8.98438 8.09879 9.38872 8.09879 9.88293C8.09879 10.3771 7.70237 10.7815 7.19783 10.7815Z" fill="#7D8695"/>
<path d="M10.3541 10.7815C9.84955 10.7815 9.45312 10.3771 9.45312 9.88293C9.45312 9.38872 9.85856 8.98438 10.3541 8.98438C10.8496 8.98438 11.255 9.38872 11.255 9.88293C11.255 10.3771 10.8496 10.7815 10.3541 10.7815Z" fill="#7D8695"/>
<path d="M4.0533 10.7815C3.54877 10.7815 3.15234 10.3771 3.15234 9.88293C3.15234 9.38872 3.55778 8.98438 4.0533 8.98438C4.54883 8.98438 4.95426 9.38872 4.95426 9.88293C4.95426 10.3771 4.54883 10.7815 4.0533 10.7815Z" fill="#7D8695"/>
<path d="M18.0019 4.30409V7.89831C18.0019 10.5401 16.7856 11.9598 14.362 12.1664C14.3891 11.9508 14.3981 11.7262 14.3981 11.4925V7.89831C14.3981 5.03192 12.9565 3.59422 10.0825 3.59422H4.31634C4.08209 3.59422 3.85686 3.60322 3.64062 3.63017C3.84785 1.21306 5.28037 0 7.92018 0H13.6863C16.5604 0 18.0019 1.4377 18.0019 4.30409Z" fill="#7D8695"/>
</svg>
