<svg width="40" height="40" viewBox="0 0 40 40" fill="none" xmlns="http://www.w3.org/2000/svg">
<rect x="0.5" y="0.5" width="39" height="39" rx="7.5" fill="#0064FA" fill-opacity="0.1" stroke="#0064FA"/>
<path opacity="0.4" d="M29.0353 22.9881L27.8353 20.9961C27.5833 20.5521 27.3553 19.7121 27.3553 19.2201V16.1841C27.3553 12.2721 24.1753 9.08008 20.2513 9.08008C16.3273 9.08008 13.1473 12.2721 13.1473 16.1841V19.2201C13.1473 19.7121 12.9193 20.5521 12.6673 20.9841L11.4553 22.9881C10.9753 23.7921 10.8673 24.6801 11.1673 25.4961C11.4553 26.3001 12.1393 26.9241 13.0273 27.2241C15.3553 28.0161 17.8033 28.4001 20.2513 28.4001C22.6993 28.4001 25.1473 28.0161 27.4753 27.2361C28.3153 26.9601 28.9633 26.3241 29.2753 25.4961C29.5873 24.6681 29.5033 23.7561 29.0353 22.9881Z" fill="#0064FA"/>
<path d="M22.9298 9.584C22.1018 9.26 21.2018 9.08 20.2538 9.08C19.3178 9.08 18.4178 9.248 17.5898 9.584C18.1058 8.612 19.1258 8 20.2538 8C21.3938 8 22.4018 8.612 22.9298 9.584Z" fill="#0064FA"/>
<path d="M23.6237 29.6116C23.1197 31.0036 21.7877 31.9996 20.2277 31.9996C19.2797 31.9996 18.3437 31.6156 17.6837 30.9316C17.2997 30.5716 17.0117 30.0916 16.8438 29.5996C16.9997 29.6236 17.1557 29.6356 17.3237 29.6596C17.5997 29.6956 17.8877 29.7316 18.1757 29.7556C18.8597 29.8156 19.5557 29.8516 20.2517 29.8516C20.9357 29.8516 21.6197 29.8156 22.2917 29.7556C22.5437 29.7316 22.7957 29.7196 23.0357 29.6836C23.2277 29.6596 23.4197 29.6356 23.6237 29.6116Z" fill="#0064FA"/>
<g filter="url(#filter0_d_319_4988)">
<circle cx="29" cy="11" r="8" fill="#FF3030"/>
</g>
<path d="M24.4375 14H28.293V13.2617H25.6094V13.2266L26.8906 11.9688C27.9023 10.9688 28.2031 10.5117 28.2031 9.86719V9.85938C28.2031 8.94922 27.4297 8.26953 26.3477 8.26953C25.2461 8.26953 24.3906 9 24.3906 10.0078V10.0312H25.2188V10.0078C25.2266 9.4375 25.6992 8.99219 26.3594 8.99219C26.9297 8.99219 27.3359 9.375 27.3398 9.91016V9.91797C27.3398 10.3555 27.1719 10.6523 26.4219 11.4023L24.4375 13.3984V14ZM31.0859 14.0938C32.3008 14.0938 33.1562 13.3008 33.1562 12.1562V12.1484C33.1562 11.0703 32.3789 10.293 31.3008 10.293C30.7461 10.293 30.2773 10.5078 30.0234 10.8867H30.0039L30.1758 9.10156H32.8281V8.36328H29.4688L29.1914 11.6133H29.957C30.0312 11.4883 30.1211 11.3789 30.2266 11.2891C30.4531 11.0859 30.7539 10.9844 31.1016 10.9844C31.8008 10.9844 32.2969 11.4727 32.3008 12.1641V12.1719C32.3008 12.8711 31.8047 13.3633 31.0938 13.3633C30.4648 13.3633 30.0039 12.9727 29.9297 12.4648L29.9258 12.4336H29.0898L29.0938 12.4805C29.1719 13.4102 29.957 14.0938 31.0859 14.0938Z" fill="white"/>
<defs>
<filter id="filter0_d_319_4988" x="14" y="2" width="24" height="24" filterUnits="userSpaceOnUse" color-interpolation-filters="sRGB">
<feFlood flood-opacity="0" result="BackgroundImageFix"/>
<feColorMatrix in="SourceAlpha" type="matrix" values="0 0 0 0 0 0 0 0 0 0 0 0 0 0 0 0 0 0 127 0" result="hardAlpha"/>
<feOffset dx="-3" dy="3"/>
<feGaussianBlur stdDeviation="2"/>
<feComposite in2="hardAlpha" operator="out"/>
<feColorMatrix type="matrix" values="0 0 0 0 0 0 0 0 0 0 0 0 0 0 0 0 0 0 0.25 0"/>
<feBlend mode="normal" in2="BackgroundImageFix" result="effect1_dropShadow_319_4988"/>
<feBlend mode="normal" in="SourceGraphic" in2="effect1_dropShadow_319_4988" result="shape"/>
</filter>
</defs>
</svg>
