<svg width="18" height="18" viewBox="0 0 18 18" fill="none" xmlns="http://www.w3.org/2000/svg">
<path d="M18.0016 3.49812V5.61448C18.0016 6.99623 17.1016 7.87076 15.6796 7.87076H12.6016V1.7578C12.6016 0.787077 13.4206 0 14.4196 0C15.4006 0.00874529 16.3006 0.393538 16.9486 1.0232C17.5966 1.66161 18.0016 2.53613 18.0016 3.49812Z" fill="#7D8695"/>
<path opacity="0.4" d="M0 4.37265V16.6161C0 17.3419 0.846005 17.7529 1.44001 17.3157L2.979 16.1963C3.339 15.9339 3.843 15.9689 4.167 16.2837L5.66099 17.7442C6.01199 18.0853 6.58801 18.0853 6.93901 17.7442L8.451 16.275C8.766 15.9689 9.27 15.9339 9.621 16.1963L11.16 17.3157C11.754 17.7442 12.6 17.3332 12.6 16.6161V1.74906C12.6 0.787076 13.41 0 14.4 0H4.5H3.6C0.9 0 0 1.56541 0 3.49812V4.37265Z" fill="#7D8695"/>
<path d="M9.00078 6.77664H3.60078C3.23178 6.77664 2.92578 6.4793 2.92578 6.12074C2.92578 5.76218 3.23178 5.46484 3.60078 5.46484H9.00078C9.36978 5.46484 9.67578 5.76218 9.67578 6.12074C9.67578 6.4793 9.36978 6.77664 9.00078 6.77664Z" fill="#7D8695"/>
<path d="M8.32656 10.2766H4.27656C3.90756 10.2766 3.60156 9.9793 3.60156 9.62074C3.60156 9.26218 3.90756 8.96484 4.27656 8.96484H8.32656C8.69556 8.96484 9.00156 9.26218 9.00156 9.62074C9.00156 9.9793 8.69556 10.2766 8.32656 10.2766Z" fill="#7D8695"/>
</svg>
