<svg width="18" height="18" viewBox="0 0 18 18" fill="none" xmlns="http://www.w3.org/2000/svg">
<path d="M15.4623 12.6094V14.4004C15.4623 16.3804 14.0777 18.0004 11.7699 18.0004H6.23141C3.92369 18.0004 2.53906 16.3804 2.53906 14.4004V12.6094H15.4623Z" fill="#7D8695"/>
<path opacity="0.4" d="M15.4623 3.60004V12.6091H2.53906V3.60004C2.53906 1.62002 3.92369 0 6.23141 0H11.7699C14.0777 0 15.4623 1.62002 15.4623 3.60004Z" fill="#7D8695"/>
<path d="M0.692316 16.8752C0.31385 16.8752 0 16.5692 0 16.2002V1.80001C0 1.431 0.31385 1.125 0.692316 1.125C1.07078 1.125 1.38463 1.431 1.38463 1.80001V16.2002C1.38463 16.5692 1.07078 16.8752 0.692316 16.8752Z" fill="#7D8695"/>
<path d="M17.3095 16.8752C16.931 16.8752 16.6172 16.5692 16.6172 16.2002V1.80001C16.6172 1.431 16.931 1.125 17.3095 1.125C17.688 1.125 18.0018 1.431 18.0018 1.80001V16.2002C18.0018 16.5692 17.688 16.8752 17.3095 16.8752Z" fill="#7D8695"/>
</svg>
