<svg width="13" height="13" viewBox="0 0 13 13" fill="none" xmlns="http://www.w3.org/2000/svg">
<path fill-rule="evenodd" clip-rule="evenodd" d="M12.3542 0.64573C12.585 0.876494 12.585 1.25064 12.3542 1.4814L7.50874 6.32686C7.27798 6.55762 6.90384 6.55762 6.67307 6.32686C6.44231 6.09609 6.44231 5.72195 6.67307 5.49118L11.5185 0.64573C11.7493 0.414965 12.1234 0.414965 12.3542 0.64573Z" fill="#0064FA"/>
<path fill-rule="evenodd" clip-rule="evenodd" d="M8.98047 0.590909C8.98047 0.264559 9.24503 0 9.57138 0H12.4077C12.7341 0 12.9986 0.264559 12.9986 0.590909V3.42727C12.9986 3.75362 12.7341 4.01818 12.4077 4.01818C12.0814 4.01818 11.8168 3.75362 11.8168 3.42727V1.18182H9.57138C9.24503 1.18182 8.98047 0.917259 8.98047 0.590909Z" fill="#0064FA"/>
<path fill-rule="evenodd" clip-rule="evenodd" d="M1.1333 1.1333C1.96311 0.303492 3.19172 0 4.72727 0H5.90909C6.23544 0 6.5 0.264559 6.5 0.590909C6.5 0.917259 6.23544 1.18182 5.90909 1.18182H4.72727C3.30828 1.18182 2.46871 1.46924 1.96897 1.96897C1.46924 2.46871 1.18182 3.30828 1.18182 4.72727V8.27273C1.18182 9.69172 1.46924 10.5313 1.96897 11.031C2.46871 11.5308 3.30828 11.8182 4.72727 11.8182H8.27273C9.69172 11.8182 10.5313 11.5308 11.031 11.031C11.5308 10.5313 11.8182 9.69172 11.8182 8.27273V7.09091C11.8182 6.76456 12.0827 6.5 12.4091 6.5C12.7354 6.5 13 6.76456 13 7.09091V8.27273C13 9.80828 12.6965 11.0369 11.8667 11.8667C11.0369 12.6965 9.80828 13 8.27273 13H4.72727C3.19172 13 1.96311 12.6965 1.1333 11.8667C0.303492 11.0369 0 9.80828 0 8.27273V4.72727C0 3.19172 0.303492 1.96311 1.1333 1.1333Z" fill="#0064FA"/>
</svg>
