<svg width="56" height="56" viewBox="0 0 56 56" fill="none" xmlns="http://www.w3.org/2000/svg">
<path opacity="0.4" d="M55.9957 18.403V37.5971C55.9957 51.7002 52.493 56 41.0042 56H22.1178V45.6118C22.1178 44.3047 21.2211 43.2039 20.1562 43.2039V12.7961C21.2211 12.7961 22.1178 11.6953 22.1178 10.3882V0H41.0042C52.493 0 55.9957 4.29976 55.9957 18.403Z" fill="#F08E61"/>
<path d="M46.1073 27.6673C46.628 27.1568 46.8117 26.3592 46.5973 25.6573C46.3829 24.9234 45.8011 24.4129 45.0661 24.3172L41.146 23.711C40.9929 23.6791 40.8704 23.5834 40.8091 23.4558L39.0635 19.7547C38.7572 19.0847 38.0834 18.6699 37.3791 18.6699C36.644 18.6699 36.0009 19.0847 35.664 19.7547L33.9184 23.4558C33.8571 23.6153 33.704 23.711 33.5509 23.711L29.6308 24.3172C28.9264 24.4129 28.3139 24.9553 28.0995 25.6573C27.8852 26.3911 28.0689 27.1568 28.5895 27.6673L31.4377 30.5388C31.5602 30.6345 31.5908 30.826 31.5602 30.9855L30.8864 35.0375C30.7639 35.7713 31.0396 36.5371 31.6521 36.9519C31.989 37.2071 32.3565 37.3347 32.7546 37.3347C33.0609 37.3347 33.3671 37.2709 33.6427 37.1114L37.1647 35.197C37.2872 35.1332 37.4709 35.1332 37.5934 35.197L41.1154 37.1114C41.7585 37.4623 42.5241 37.3985 43.106 36.9519C43.6879 36.5052 43.9942 35.7713 43.8717 35.0056L43.1979 30.9536C43.1673 30.7941 43.2285 30.6345 43.3204 30.5069L46.1073 27.6673Z" fill="#F08E61"/>
<path d="M20.1778 12.7961V43.2039C19.113 43.2039 18.2163 44.3047 18.2163 45.6118V56H14.9658C3.89734 56 0.254548 51.941 0.00235471 39.2826C-0.0256668 38.629 0.198505 38.0098 0.562784 37.5627C0.927064 37.0811 1.45947 36.8403 1.96386 36.8403C5.88686 36.8403 9.10934 32.8845 9.10934 28.0344C9.10934 23.1843 5.88686 19.1941 1.96386 19.1941C1.40343 19.1941 0.927064 18.9533 0.562784 18.4717C0.198505 18.0246 -0.0256668 17.371 0.00235471 16.7518C0.254548 4.05897 3.89734 0 14.9658 0H18.2163V10.3882C18.2163 11.7297 19.113 12.7961 20.1778 12.7961Z" fill="#F08E61"/>
</svg>
