<svg width="23" height="16" viewBox="0 0 23 16" fill="none" xmlns="http://www.w3.org/2000/svg">
<path d="M2.39766 12.9608H3.10311C3.3314 14.6844 4.47116 16 5.84238 16C7.21313 16 8.3529 14.6844 8.58118 12.9608H14.0058C14.2341 14.6844 15.3737 16 16.7446 16C18.1156 16 19.2556 14.6844 19.4839 12.9608H22.0592C22.578 12.9608 23 12.4041 23 11.7196V8.30462C23 6.56051 21.9243 5.14121 20.6024 5.14121H17.7417C15.9771 2.91762 15.1446 0 12.5641 0H6.78589C5.47371 0 4.26702 0.869654 3.55759 2.32646L2.18838 5.14099L0.47948 5.14121C0.214398 5.14121 0 5.42454 0 5.77383V9.7974C0 11.5417 1.07576 12.9608 2.39766 12.9608ZM5.84238 14.7347C4.8386 14.7347 4.02208 13.6594 4.01857 12.3363C4.01874 12.3335 4.01991 12.331 4.01991 12.3282C4.01991 12.3253 4.01874 12.3229 4.01857 12.32C4.02208 10.9967 4.83873 9.9214 5.84238 9.9214C6.84818 9.9214 7.66637 11.0011 7.66637 12.3281C7.66637 13.655 6.84822 14.7347 5.84238 14.7347ZM16.7447 14.7347C15.7389 14.7347 14.9207 13.655 14.9207 12.3281C14.9207 11.0011 15.7388 9.9214 16.7447 9.9214C17.7495 9.9214 18.5671 10.9989 18.5688 12.3242C18.5688 12.3257 18.5683 12.3268 18.5683 12.3284C18.5683 12.3297 18.5688 12.331 18.5688 12.3326C18.5671 13.6572 17.7494 14.7347 16.7447 14.7347ZM16.4604 5.1411H10.3623V1.26542H12.5642C14.5001 1.26542 15.1346 3.46918 16.4604 5.1411ZM4.36526 3.0106C4.89727 1.91787 5.8019 1.26536 6.78629 1.26536H9.4035V5.14104H3.32812L4.36526 3.0106ZM0.959319 6.40658H20.6026C21.3958 6.40658 22.0413 7.25787 22.0413 8.30473L22.0595 11.6954H19.4841C19.2558 9.97134 18.1162 8.65576 16.7449 8.65576C15.3741 8.65576 14.2343 9.97134 14.006 11.6954H8.58145C8.35316 9.97134 7.21357 8.65576 5.84265 8.65576C4.47143 8.65576 3.33166 9.97134 3.10337 11.6954H2.39809C1.60487 11.6954 0.959438 10.8441 0.959438 9.79724L0.959319 6.40658Z" fill="#7D8695"/>
</svg>
