<svg width="20" height="18" viewBox="0 0 20 18" fill="none" xmlns="http://www.w3.org/2000/svg">
<path fill-rule="evenodd" clip-rule="evenodd" d="M2.38844 2.50997C2.06054 2.85456 1.8183 3.52038 1.8183 4.97771V13.0223C1.8183 13.8891 2.02532 14.65 2.44391 15.1777C2.83817 15.6747 3.51792 16.0892 4.73667 16.0892H10.4825C11.8638 16.0892 12.4985 15.835 12.8279 15.4894C13.157 15.1442 13.4009 14.4778 13.4009 13.0223V4.97771C13.4009 3.52038 13.1586 2.85456 12.8307 2.50997C12.5028 2.16539 11.8693 1.91083 10.4825 1.91083H4.73667C3.34992 1.91083 2.71633 2.16539 2.38844 2.50997ZM1.1027 1.15882C1.97034 0.247031 3.25051 0 4.73667 0H10.4825C11.9687 0 13.2488 0.247031 14.1165 1.15882C14.9841 2.0706 15.2192 3.41592 15.2192 4.97771V13.0223C15.2192 14.5859 14.9812 15.9306 14.1125 16.8418C13.2441 17.7526 11.965 18 10.4825 18H4.73667C3.08251 18 1.84851 17.4113 1.04723 16.4012C0.270283 15.4217 0 14.1714 0 13.0223V4.97771C0 3.41592 0.235069 2.0706 1.1027 1.15882Z" fill="#7D8695"/>
<path fill-rule="evenodd" clip-rule="evenodd" d="M17.3557 4.90111C17.3554 4.90127 17.3559 4.90095 17.3557 4.90111L15.2167 6.47777V11.5127L17.3571 13.0905L17.3593 13.0921C17.5895 13.2628 17.7641 13.3306 17.8735 13.3517C17.9265 13.362 17.9608 13.3608 17.9793 13.3584C17.9968 13.3561 18.0044 13.3522 18.007 13.3508C18.0095 13.3494 18.017 13.345 18.0291 13.331C18.0418 13.3163 18.0627 13.2872 18.0855 13.2353C18.1324 13.1281 18.1806 12.9378 18.1806 12.6402V5.3599C18.1806 5.06231 18.1324 4.87189 18.0854 4.76444C18.0626 4.71236 18.0415 4.68295 18.0286 4.66788C18.0162 4.65353 18.0083 4.64878 18.0052 4.64707C18.0021 4.64536 17.994 4.64134 17.976 4.63892C17.9571 4.63637 17.9225 4.63505 17.8694 4.64506C17.7599 4.66569 17.5851 4.7328 17.3557 4.90111ZM18.8469 2.9533C19.6851 3.41331 19.9989 4.39083 19.9989 5.3599V12.6402C19.9989 13.6083 19.6855 14.5878 18.8451 15.0465C18.0046 15.5053 17.063 15.2108 16.3118 14.654C16.3115 14.6537 16.3111 14.6534 16.3107 14.6532L13.7855 12.7918C13.5429 12.6129 13.3984 12.321 13.3984 12.0096V5.98092C13.3984 5.66948 13.5429 5.37759 13.7855 5.19874L16.3144 3.33461C17.067 2.78213 18.0085 2.49318 18.8469 2.9533Z" fill="#7D8695"/>
<path fill-rule="evenodd" clip-rule="evenodd" d="M9.55022 6.13348C9.29917 6.13348 9.09564 6.34736 9.09564 6.61119C9.09564 6.87502 9.29917 7.0889 9.55022 7.0889C9.80128 7.0889 10.0048 6.87502 10.0048 6.61119C10.0048 6.34736 9.80128 6.13348 9.55022 6.13348ZM7.27734 6.61119C7.27734 5.29204 8.29495 4.22266 9.55022 4.22266C10.8055 4.22266 11.8231 5.29204 11.8231 6.61119C11.8231 7.93034 10.8055 8.99973 9.55022 8.99973C8.29495 8.99973 7.27734 7.93034 7.27734 6.61119Z" fill="#7D8695"/>
</svg>
