<svg width="57" height="56" viewBox="0 0 57 56" fill="none" xmlns="http://www.w3.org/2000/svg">
<path opacity="0.4" d="M19.6719 0C12.3505 0 6.39844 5.96429 6.39844 13.3006C6.39844 20.497 12.0152 26.3213 19.3366 26.5733C19.5601 26.5453 19.7837 26.5453 19.9514 26.5733C20.0072 26.5733 20.0352 26.5733 20.0911 26.5733C20.119 26.5733 20.119 26.5733 20.147 26.5733C27.3007 26.3213 32.9174 20.497 32.9454 13.3006C32.9454 5.96429 26.9933 0 19.6719 0Z" fill="#F08E61"/>
<path d="M33.8683 34.0195C26.0719 28.8112 13.3573 28.8112 5.505 34.0195C1.95609 36.3996 0 39.6197 0 43.0639C0 46.5081 1.95609 49.7002 5.47705 52.0523C9.38923 54.6845 14.531 56.0005 19.6727 56.0005C24.8144 56.0005 29.9561 54.6845 33.8683 52.0523C37.3893 49.6722 39.3454 46.4801 39.3454 43.0079C39.3174 39.5637 37.3893 36.3716 33.8683 34.0195Z" fill="#F08E61"/>
<path opacity="0.4" d="M50.3804 14.948C50.8275 20.3803 46.9712 25.1405 41.6339 25.7846C41.6059 25.7846 41.6059 25.7846 41.578 25.7846H41.4941C41.3265 25.7846 41.1588 25.7846 41.0191 25.8406C38.3085 25.9806 35.8215 25.1125 33.9492 23.5164C36.8275 20.9403 38.4762 17.0761 38.1408 12.8759C37.9452 10.6078 37.1628 8.53573 35.9891 6.77164C37.051 6.23962 38.2806 5.9036 39.5381 5.79159C45.0151 5.31557 49.9053 9.40377 50.3804 14.948Z" fill="#F08E61"/>
<path d="M55.9725 40.8521C55.749 43.5682 54.0164 45.9203 51.1102 47.5164C48.3158 49.0565 44.7948 49.7845 41.3018 49.7005C43.3138 47.8804 44.4875 45.6123 44.711 43.2042C44.9905 39.732 43.3418 36.3999 40.0443 33.7398C38.1721 32.2557 35.9924 31.0796 33.6172 30.2116C39.7928 28.4195 47.5613 29.6236 52.3398 33.4877C54.9106 35.5598 56.224 38.164 55.9725 40.8521Z" fill="#F08E61"/>
</svg>
