<svg width="18" height="18" viewBox="0 0 18 18" fill="none" xmlns="http://www.w3.org/2000/svg">
<path fill-rule="evenodd" clip-rule="evenodd" d="M5.4 0C5.89706 0 6.3 0.366146 6.3 0.81781V3.27124C6.3 3.7229 5.89706 4.08905 5.4 4.08905C4.90294 4.08905 4.5 3.7229 4.5 3.27124V0.81781C4.5 0.366146 4.90294 0 5.4 0Z" fill="#7D8695"/>
<path fill-rule="evenodd" clip-rule="evenodd" d="M12.6012 0C13.0982 0 13.5012 0.366146 13.5012 0.81781V3.27124C13.5012 3.7229 13.0982 4.08905 12.6012 4.08905C12.1041 4.08905 11.7012 3.7229 11.7012 3.27124V0.81781C11.7012 0.366146 12.1041 0 12.6012 0Z" fill="#7D8695"/>
<path fill-rule="evenodd" clip-rule="evenodd" d="M5.34873 1.22789C5.3658 1.22701 5.3829 1.22656 5.4 1.22656H12.6C12.6162 1.22656 12.6324 1.22696 12.6486 1.22775C14.2224 1.30506 15.6502 1.6225 16.6432 2.62623C17.6202 3.61385 18 5.09038 18 7.0739V12.128C18 13.8244 17.7891 15.3616 16.7734 16.448C15.7253 17.5691 14.034 17.9998 11.7 17.9998H6.3C3.96595 17.9998 2.27473 17.5691 1.22659 16.448C0.210921 15.3616 0 13.8244 0 12.128V7.0739C0 5.09032 0.379798 3.61557 1.35721 2.62889C2.34975 1.62692 3.77681 1.30939 5.34873 1.22789ZM5.42612 2.86218C4.0165 2.938 3.20025 3.21315 2.69504 3.72315C2.1717 4.25146 1.8 5.21378 1.8 7.0739V12.128C1.8 13.8009 2.03908 14.7908 2.59841 15.389C3.12527 15.9526 4.13405 16.3642 6.3 16.3642H11.7C13.8659 16.3642 14.8747 15.9526 15.4016 15.389C15.9609 14.7908 16.2 13.8009 16.2 12.128V7.0739C16.2 5.21372 15.8283 4.24909 15.3046 3.71967C14.7996 3.20924 13.9837 2.93398 12.5752 2.86218H5.42612Z" fill="#7D8695"/>
<path fill-rule="evenodd" clip-rule="evenodd" d="M0.222656 13.5756C0.222656 13.124 0.6256 12.7578 1.12266 12.7578H16.8727C17.3697 12.7578 17.7727 13.124 17.7727 13.5756C17.7727 14.0273 17.3697 14.3934 16.8727 14.3934H1.12266C0.6256 14.3934 0.222656 14.0273 0.222656 13.5756Z" fill="#7D8695"/>
<path d="M9 5.625C7.893 5.625 6.957 6.16416 6.957 7.2103C6.957 7.70923 7.218 8.08745 7.614 8.32886C7.065 8.61856 6.75 9.0853 6.75 9.63251C6.75 10.6304 7.605 11.25 9 11.25C10.386 11.25 11.25 10.6304 11.25 9.63251C11.25 9.0853 10.935 8.61051 10.377 8.32886C10.782 8.0794 11.034 7.70923 11.034 7.2103C11.034 6.16416 10.107 5.625 9 5.625ZM9 7.91041C8.532 7.91041 8.19 7.66094 8.19 7.26663C8.19 6.86427 8.532 6.6309 9 6.6309C9.468 6.6309 9.81 6.86427 9.81 7.26663C9.81 7.66094 9.468 7.91041 9 7.91041ZM9 10.2521C8.406 10.2521 7.974 9.98659 7.974 9.50376C7.974 9.02092 8.406 8.76341 9 8.76341C9.594 8.76341 10.026 9.02897 10.026 9.50376C10.026 9.98659 9.594 10.2521 9 10.2521Z" fill="#7D8695"/>
</svg>
