<svg width="18" height="18" viewBox="0 0 18 18" fill="none" xmlns="http://www.w3.org/2000/svg">
<path fill-rule="evenodd" clip-rule="evenodd" d="M1.56924 1.56924C2.71824 0.420233 4.41945 0 6.54567 0H11.4549C13.5811 0 15.2824 0.420233 16.4314 1.56924C17.5804 2.71824 18.0006 4.41945 18.0006 6.54567V11.4549C18.0006 13.0675 17.7603 14.4288 17.147 15.4948C16.5143 16.5944 15.5345 17.2943 14.247 17.6587C14.0119 17.7253 13.7594 17.6833 13.5586 17.5443C13.3577 17.4053 13.2294 17.1839 13.2088 16.9405C13.0757 15.3669 11.3789 13.885 9.0003 13.885C6.6217 13.885 4.92494 15.3669 4.79179 16.9405C4.7712 17.1839 4.64292 17.4053 4.44204 17.5443C4.24115 17.6833 3.98867 17.7253 3.75363 17.6587C2.46611 17.2943 1.48628 16.5944 0.853584 15.4948C0.240257 14.4288 0 13.0675 0 11.4549V6.54567C0 4.41945 0.420233 2.71824 1.56924 1.56924ZM2.72636 2.72636C2.03439 3.41833 1.63642 4.58085 1.63642 6.54567V11.4549C1.63642 12.9352 1.86254 13.9671 2.27198 14.6787C2.53439 15.1348 2.89151 15.4931 3.38274 15.7597C4.11728 13.6482 6.45891 12.2486 9.0003 12.2486C11.5417 12.2486 13.8833 13.6482 14.6179 15.7597C15.1091 15.4931 15.4662 15.1348 15.7286 14.6787C16.1381 13.9671 16.3642 12.9352 16.3642 11.4549V6.54567C16.3642 4.58085 15.9662 3.41833 15.2742 2.72636C14.5823 2.03439 13.4197 1.63642 11.4549 1.63642H6.54567C4.58085 1.63642 3.41833 2.03439 2.72636 2.72636ZM9.0003 5.72746C7.83213 5.72746 6.88932 6.67028 6.88932 7.83846C6.88932 9.00959 7.83509 9.95759 9.0003 9.95759C10.1655 9.95759 11.1113 9.00959 11.1113 7.83846C11.1113 6.67028 10.1685 5.72746 9.0003 5.72746ZM5.2529 7.83846C5.2529 5.76652 6.92836 4.09105 9.0003 4.09105C11.0722 4.09105 12.7477 5.76652 12.7477 7.83846C12.7477 9.90743 11.0752 11.594 9.0003 11.594C6.9254 11.594 5.2529 9.90743 5.2529 7.83846Z" fill="#7D8695"/>
</svg>
