<svg width="19" height="18" viewBox="0 0 19 18" fill="none" xmlns="http://www.w3.org/2000/svg">
<path fill-rule="evenodd" clip-rule="evenodd" d="M4.73822 2.34253C4.33558 2.76714 4.09339 3.37639 4.09339 4.09091V13.9091C4.09339 14.6236 4.33558 15.2329 4.73822 15.6575C5.13453 16.0754 5.73216 16.3636 6.54794 16.3636H11.457C12.2728 16.3636 12.8704 16.0754 13.2667 15.6575C13.6694 15.2329 13.9116 14.6236 13.9116 13.9091V4.09091C13.9116 3.37639 13.6694 2.76714 13.2667 2.34253C12.8704 1.92461 12.2728 1.63636 11.457 1.63636H6.54794C5.73216 1.63636 5.13453 1.92461 4.73822 2.34253ZM3.55084 1.21656C4.27954 0.448118 5.31827 0 6.54794 0H11.457C12.6867 0 13.7254 0.448118 14.4541 1.21656C15.1765 1.97831 15.5479 3.00543 15.5479 4.09091V13.9091C15.5479 14.9946 15.1765 16.0217 14.4541 16.7834C13.7254 17.5519 12.6867 18 11.457 18H6.54794C5.31827 18 4.27954 17.5519 3.55084 16.7834C2.82849 16.0217 2.45703 14.9946 2.45703 13.9091V4.09091C2.45703 3.00543 2.82849 1.97831 3.55084 1.21656Z" fill="#7D8695"/>
<path fill-rule="evenodd" clip-rule="evenodd" d="M2.45703 12.2811C2.45703 11.8292 2.82334 11.4629 3.27521 11.4629H14.7298C15.1816 11.4629 15.5479 11.8292 15.5479 12.2811C15.5479 12.7329 15.1816 13.0993 14.7298 13.0993H3.27521C2.82334 13.0993 2.45703 12.7329 2.45703 12.2811Z" fill="#7D8695"/>
<path fill-rule="evenodd" clip-rule="evenodd" d="M0.818182 1.63672C1.27005 1.63672 1.63636 2.00303 1.63636 2.4549V15.5458C1.63636 15.9977 1.27005 16.364 0.818182 16.364C0.366312 16.364 0 15.9977 0 15.5458V2.4549C0 2.00303 0.366312 1.63672 0.818182 1.63672Z" fill="#7D8695"/>
<path fill-rule="evenodd" clip-rule="evenodd" d="M17.1854 1.63672C17.6372 1.63672 18.0036 2.00303 18.0036 2.4549V15.5458C18.0036 15.9977 17.6372 16.364 17.1854 16.364C16.7335 16.364 16.3672 15.9977 16.3672 15.5458V2.4549C16.3672 2.00303 16.7335 1.63672 17.1854 1.63672Z" fill="#7D8695"/>
</svg>
