<svg width="18" height="16" viewBox="0 0 18 16" fill="none" xmlns="http://www.w3.org/2000/svg">
<path fill-rule="evenodd" clip-rule="evenodd" d="M0 5.05544C0 4.59011 0.366312 4.21289 0.818182 4.21289H17.1818C17.6337 4.21289 18 4.59011 18 5.05544C18 5.52076 17.6337 5.89798 17.1818 5.89798H0.818182C0.366312 5.89798 0 5.52076 0 5.05544Z" fill="#7D8695"/>
<path fill-rule="evenodd" clip-rule="evenodd" d="M3.27148 11.7957C3.27148 11.3303 3.6378 10.9531 4.08967 10.9531H5.72603C6.1779 10.9531 6.54421 11.3303 6.54421 11.7957C6.54421 12.261 6.1779 12.6382 5.72603 12.6382H4.08967C3.6378 12.6382 3.27148 12.261 3.27148 11.7957Z" fill="#7D8695"/>
<path fill-rule="evenodd" clip-rule="evenodd" d="M6.95508 11.7957C6.95508 11.3303 7.32139 10.9531 7.77326 10.9531H11.046C11.4979 10.9531 11.8642 11.3303 11.8642 11.7957C11.8642 12.261 11.4979 12.6382 11.046 12.6382H7.77326C7.32139 12.6382 6.95508 12.261 6.95508 11.7957Z" fill="#7D8695"/>
<path fill-rule="evenodd" clip-rule="evenodd" d="M2.1206 2.18206C1.8386 2.46919 1.63636 3.05835 1.63636 4.54132V11.467C1.63636 12.9504 1.83875 13.5388 2.12005 13.8247C2.40433 14.1136 2.98968 14.3191 4.4486 14.3148L4.45091 14.3148L13.5491 14.3148C15.0079 14.3148 15.5942 14.1083 15.8794 13.8179C16.1614 13.5307 16.3636 12.9416 16.3636 11.4586V4.54132C16.3636 3.05828 16.1614 2.46964 15.8789 2.18262C15.5927 1.89175 15.0042 1.68509 13.5409 1.68509H4.45091C2.9921 1.68509 2.40582 1.89165 2.1206 2.18206ZM0.970083 0.983799C1.77509 0.164156 3.00518 0 4.45091 0H13.5409C14.9903 0 16.2223 0.164064 17.0283 0.983244C17.8382 1.80627 18 3.06702 18 4.54132V11.4586C18 12.933 17.8381 14.1932 17.0299 15.0161C16.2249 15.8358 14.9948 15.9999 13.5491 15.9999H4.45209C3.00696 16.004 1.77637 15.8429 0.970636 15.0241C0.161703 14.202 0 12.941 0 11.467V4.54132C0 3.06695 0.161856 1.80672 0.970083 0.983799Z" fill="#7D8695"/>
</svg>
