<svg width="18" height="18" viewBox="0 0 18 18" fill="none" xmlns="http://www.w3.org/2000/svg">
<path fill-rule="evenodd" clip-rule="evenodd" d="M7.86639 6.00355C7.47728 6.00355 7.0973 6.34652 7.0973 6.84628C7.0973 7.22829 7.17922 7.36661 7.22065 7.41947C7.26953 7.48182 7.36776 7.56013 7.63019 7.65339L10.9297 8.79963C11.312 8.93511 11.7533 9.147 12.0827 9.56719C12.4197 9.99707 12.5546 10.5337 12.5546 11.1499C12.5546 12.4829 11.5109 13.629 10.1491 13.629H8.09548C6.6002 13.629 5.46094 12.3738 5.46094 10.9045C5.46094 10.4526 5.82725 10.0863 6.27912 10.0863C6.73099 10.0863 7.0973 10.4526 7.0973 10.9045C7.0973 11.546 7.57804 11.9926 8.09548 11.9926H10.1491C10.5382 11.9926 10.9182 11.6497 10.9182 11.1499C10.9182 10.7679 10.8363 10.6296 10.7949 10.5767C10.746 10.5144 10.6478 10.4361 10.3854 10.3428L7.08579 9.19656C6.70354 9.06108 6.2622 8.84919 5.93281 8.429C5.59584 7.99913 5.46094 7.46245 5.46094 6.84628C5.46094 5.51331 6.50459 4.36719 7.86639 4.36719H9.92003C11.4153 4.36719 12.5546 5.62237 12.5546 7.09173C12.5546 7.5436 12.1883 7.90991 11.7364 7.90991C11.2845 7.90991 10.9182 7.5436 10.9182 7.09173C10.9182 6.45019 10.4375 6.00355 9.92003 6.00355H7.86639Z" fill="#7D8695"/>
<path fill-rule="evenodd" clip-rule="evenodd" d="M8.99787 3.27148C9.44974 3.27148 9.81605 3.6378 9.81605 4.08967V13.9078C9.81605 14.3597 9.44974 14.726 8.99787 14.726C8.546 14.726 8.17969 14.3597 8.17969 13.9078V4.08967C8.17969 3.6378 8.546 3.27148 8.99787 3.27148Z" fill="#7D8695"/>
<path fill-rule="evenodd" clip-rule="evenodd" d="M9 1.63636C4.93318 1.63636 1.63636 4.93318 1.63636 9C1.63636 13.0668 4.93318 16.3636 9 16.3636C13.0668 16.3636 16.3636 13.0668 16.3636 9C16.3636 4.93318 13.0668 1.63636 9 1.63636ZM0 9C0 4.02944 4.02944 0 9 0C13.9706 0 18 4.02944 18 9C18 13.9706 13.9706 18 9 18C4.02944 18 0 13.9706 0 9Z" fill="#7D8695"/>
</svg>
