<svg width="23" height="16" viewBox="0 0 23 16" fill="none" xmlns="http://www.w3.org/2000/svg">
<path d="M0.397947 6.4864e-05C0.178973 -0.00083758 0.000888673 0.179472 4.98134e-06 0.402738V13.7881C-0.000526095 13.8958 0.0414279 13.9993 0.116131 14.0754C0.190833 14.1518 0.292267 14.1944 0.397952 14.194H2.53939C2.72544 15.2165 3.59991 16 4.64824 16C5.69657 16 6.57369 15.2165 6.76026 14.194H16.765C17.0228 15.1154 17.8496 15.7969 18.8275 15.7969C19.8054 15.7969 20.6321 15.1152 20.89 14.194H22.6039H22.6037C22.8227 14.1931 22.9996 14.0113 22.9988 13.7881V9.30053C23.0024 9.2527 22.9978 9.20451 22.9849 9.1583C22.9845 9.15668 22.9843 9.15524 22.984 9.15361C22.9838 9.15307 22.9834 9.15253 22.9833 9.15199C22.9815 9.14657 22.9797 9.14098 22.9778 9.13556L21.8889 5.9573V5.95712C21.887 5.95207 21.885 5.94719 21.8827 5.94214L21.1369 3.76904C21.0815 3.60642 20.9311 3.4974 20.7622 3.4974H15.3504V0.402678V0.402858C15.3495 0.180673 15.1732 0.000905632 14.9553 0L0.397947 6.4864e-05ZM0.792881 0.808665H14.5567V8.83368H0.793334L0.792881 0.808665ZM4.12463 3.04729H4.1248C4.01948 3.04747 3.91857 3.09042 3.8444 3.16659C3.77005 3.24276 3.72863 3.34582 3.72898 3.45321C3.72987 3.67557 3.90671 3.85552 4.1248 3.85588H11.2261C11.444 3.85498 11.6203 3.67521 11.621 3.45321C11.6215 3.346 11.5801 3.24294 11.5061 3.16677C11.4319 3.09078 11.3312 3.04765 11.2261 3.04729H4.12463ZM15.3498 4.30676H20.4815L20.954 5.68554H17.6099C17.3909 5.68464 17.2128 5.86495 17.212 6.08821V9.26971C17.2128 9.49298 17.3909 9.67329 17.6099 9.67238H22.2056V13.3852H20.9641C20.8655 12.2637 19.9452 11.374 18.8273 11.374C17.7096 11.374 16.7892 12.2639 16.6905 13.3852H15.3499L15.3498 4.30676ZM4.12463 5.84652H4.1248C4.01948 5.84688 3.91857 5.88966 3.8444 5.96583C3.77005 6.04199 3.72863 6.14505 3.72898 6.25244C3.72987 6.47481 3.90671 6.65476 4.1248 6.65512H11.2261C11.444 6.6544 11.6203 6.47444 11.621 6.25244C11.6215 6.14523 11.5801 6.04217 11.5061 5.96619C11.4319 5.89002 11.3312 5.84706 11.2261 5.84652H4.12463ZM18.0049 6.49414H21.2306L21.4397 7.10221L22.043 8.86399L18.0051 8.86381L18.0049 6.49414ZM0.793334 9.64246H14.5572V13.3853H6.7612C6.57586 12.3614 5.69782 11.577 4.64845 11.577C3.59908 11.577 2.72368 12.3614 2.53888 13.3853H0.793243L0.793334 9.64246ZM18.7926 12.1827C18.8042 12.1824 18.8157 12.1827 18.8274 12.1827C19.5768 12.1827 20.1797 12.8029 20.1797 13.5851C20.1797 14.3674 19.5768 14.9883 18.8274 14.9883C18.0781 14.9883 17.4752 14.3672 17.4752 13.5851C17.4752 12.8152 18.0595 12.2017 18.7926 12.1827ZM4.6136 12.3858C4.62529 12.3854 4.63679 12.3858 4.64848 12.3858C5.3978 12.3858 6.00374 13.0059 6.00374 13.7882C6.00374 14.5705 5.3978 15.1913 4.64848 15.1913C3.89915 15.1913 3.2962 14.5703 3.2962 13.7882C3.2962 13.0182 3.88059 12.4048 4.6136 12.3858Z" fill="white"/>
</svg>
