<svg width="20" height="20" viewBox="0 0 20 20" fill="none" xmlns="http://www.w3.org/2000/svg">
<path d="M9.91 8.08C10.43 8.08 10.88 8.27 11.26 8.65C11.64 9.01 11.83 9.46 11.83 10C11.83 10.52 11.64 10.97 11.26 11.35C10.88 11.73 10.43 11.92 9.91 11.92C9.37 11.92 8.91 11.73 8.53 11.35C8.15 10.97 7.96 10.52 7.96 10C7.96 9.46 8.15 9.01 8.53 8.65C8.91 8.27 9.37 8.08 9.91 8.08ZM11.89 13.48C11.89 13.94 11.98 14.35 12.16 14.71C12.34 15.07 12.57 15.37 12.85 15.61C13.15 15.85 13.47 16.04 13.81 16.18C14.17 16.3 14.52 16.36 14.86 16.36C15.64 16.36 16.29 16.13 16.81 15.67C17.35 15.21 17.78 14.65 18.1 13.99C18.42 13.33 18.65 12.64 18.79 11.92C18.93 11.18 19 10.54 19 10C19 8.76 18.76 7.59 18.28 6.49C17.82 5.39 17.18 4.44 16.36 3.64C15.54 2.82 14.58 2.18 13.48 1.72C12.4 1.24 11.24 1 10 1C8.76 1 7.59 1.24 6.49 1.72C5.39 2.18 4.43 2.82 3.61 3.64C2.81 4.44 2.17 5.39 1.69 6.49C1.23 7.59 1 8.76 1 10C1 11.24 1.23 12.41 1.69 13.51C2.17 14.59 2.82 15.54 3.64 16.36C4.46 17.18 5.41 17.83 6.49 18.31C7.59 18.77 8.76 19 10 19C10.32 19 10.59 18.89 10.81 18.67C11.05 18.43 11.17 18.15 11.17 17.83C11.17 17.51 11.05 17.24 10.81 17.02C10.59 16.78 10.32 16.66 10 16.66C9.08 16.66 8.21 16.49 7.39 16.15C6.59 15.79 5.88 15.31 5.26 14.71C4.66 14.11 4.18 13.41 3.82 12.61C3.48 11.79 3.31 10.92 3.31 10C3.31 9.08 3.48 8.22 3.82 7.42C4.18 6.6 4.66 5.89 5.26 5.29C5.88 4.67 6.59 4.19 7.39 3.85C8.21 3.49 9.08 3.31 10 3.31C10.92 3.31 11.78 3.49 12.58 3.85C13.4 4.19 14.11 4.66 14.71 5.26C15.31 5.86 15.78 6.57 16.12 7.39C16.48 8.21 16.66 9.08 16.66 10C16.66 10.54 16.6 11.06 16.48 11.56C16.36 12.04 16.21 12.47 16.03 12.85C15.87 13.21 15.69 13.51 15.49 13.75C15.29 13.97 15.1 14.08 14.92 14.08C14.6 14.08 14.39 13.98 14.29 13.78C14.21 13.58 14.17 13.43 14.17 13.33V6.97C14.17 6.63 14.05 6.35 13.81 6.13C13.59 5.91 13.32 5.8 13 5.8C12.72 5.8 12.47 5.89 12.25 6.07C12.05 6.25 11.93 6.44 11.89 6.64C11.87 6.62 11.8 6.57 11.68 6.49C11.58 6.39 11.43 6.29 11.23 6.19C11.03 6.09 10.79 6 10.51 5.92C10.23 5.84 9.9 5.8 9.52 5.8C9.06 5.8 8.6 5.91 8.14 6.13C7.68 6.33 7.26 6.62 6.88 7C6.52 7.36 6.22 7.8 5.98 8.32C5.76 8.84 5.65 9.4 5.65 10C5.65 10.6 5.76 11.16 5.98 11.68C6.22 12.2 6.52 12.65 6.88 13.03C7.26 13.39 7.68 13.68 8.14 13.9C8.6 14.1 9.06 14.2 9.52 14.2C9.9 14.2 10.23 14.16 10.51 14.08C10.79 14 11.03 13.91 11.23 13.81C11.43 13.69 11.58 13.59 11.68 13.51C11.8 13.41 11.87 13.35 11.89 13.33V13.48Z" fill="#7D8695" stroke="white" stroke-width="0.5"/>
</svg>
