<svg width="19" height="18" viewBox="0 0 19 18" fill="none" xmlns="http://www.w3.org/2000/svg">
<path fill-rule="evenodd" clip-rule="evenodd" d="M11.0934 0.720611C11.0937 0.720845 11.094 0.721079 11.0943 0.721313L16.7649 5.33286C17.2202 5.70584 17.5535 6.24416 17.7556 6.78316C17.9578 7.32237 18.0617 7.94989 17.9674 8.53738L17.9669 8.54043L16.8787 15.1657L16.8783 15.1682C16.6153 16.7405 15.1547 18 13.5845 18H4.42083C2.84315 18 1.38968 16.7494 1.12682 15.1673L0.0392375 8.54552C0.0390788 8.54459 0.0389206 8.54366 0.0387629 8.54273C-0.0611253 7.95308 0.0408671 7.32363 0.243555 6.78316C0.446415 6.24224 0.782774 5.70341 1.24315 5.33064C1.24359 5.33029 1.24402 5.32994 1.24445 5.32959L6.91172 0.712395C8.07943 -0.239824 9.92034 -0.237831 11.0934 0.720611ZM10.0692 2.01882C9.49146 1.54647 8.50199 1.5489 7.93542 2.01108L2.26267 6.63273C2.08554 6.77596 1.8987 7.03984 1.77243 7.37653C1.64612 7.71333 1.61312 8.03578 1.65152 8.26101L1.65239 8.26609L2.7403 14.8899C2.74026 14.8896 2.74034 14.8901 2.7403 14.8899C2.87052 15.6712 3.64238 16.3353 4.42083 16.3353H13.5845C14.3538 16.3353 15.1348 15.6645 15.265 14.89C15.265 14.8897 15.2651 14.8893 15.2652 14.8889L16.3524 8.26915C16.3525 8.26874 16.3526 8.26833 16.3526 8.26793C16.3889 8.03979 16.3536 7.71484 16.2267 7.37653C16.0998 7.03802 15.914 6.77349 15.7396 6.63023C15.7393 6.62997 15.7389 6.62971 15.7386 6.62945L10.0709 2.02019L10.0692 2.01882Z" fill="#7D8695"/>
<path fill-rule="evenodd" clip-rule="evenodd" d="M9.00036 8.58849C8.32255 8.58849 7.77308 9.14746 7.77308 9.83698C7.77308 10.5265 8.32255 11.0855 9.00036 11.0855C9.67816 11.0855 10.2276 10.5265 10.2276 9.83698C10.2276 9.14746 9.67816 8.58849 9.00036 8.58849ZM6.13672 9.83698C6.13672 8.22809 7.41881 6.92383 9.00036 6.92383C10.5819 6.92383 11.864 8.22809 11.864 9.83698C11.864 11.4459 10.5819 12.7501 9.00036 12.7501C7.41881 12.7501 6.13672 11.4459 6.13672 9.83698Z" fill="#7D8695"/>
</svg>
