<svg width="57" height="56" viewBox="0 0 57 56" fill="none" xmlns="http://www.w3.org/2000/svg">
<path opacity="0.4" d="M53.3333 19.3412V22.8555H0V18.684C0 12.1412 4.96 6.85547 11.0667 6.85547H37.3333V14.1983C37.3333 17.8269 39.36 19.9983 42.7467 19.9983H50.5867C51.6533 19.9983 52.56 19.7983 53.3333 19.3412Z" fill="#FF3030"/>
<path d="M0 22.8574V44.1717C0 50.7146 4.96 56.0003 11.0667 56.0003H42.2667C48.3733 56.0003 53.3333 50.7146 53.3333 44.1717V22.8574H0ZM16 46.4288H10.6667C9.57333 46.4288 8.66667 45.4574 8.66667 44.286C8.66667 43.1146 9.57333 42.1431 10.6667 42.1431H16C17.0933 42.1431 18 43.1146 18 44.286C18 45.4574 17.0933 46.4288 16 46.4288ZM33.3333 46.4288H22.6667C21.5733 46.4288 20.6667 45.4574 20.6667 44.286C20.6667 43.1146 21.5733 42.1431 22.6667 42.1431H33.3333C34.4267 42.1431 35.3333 43.1146 35.3333 44.286C35.3333 45.4574 34.4267 46.4288 33.3333 46.4288Z" fill="#FF3030"/>
<path d="M50.5893 0H42.7493C39.3626 0 37.3359 2.17143 37.3359 5.8V14.2C37.3359 17.8286 39.3626 20 42.7493 20H50.5893C53.9759 20 56.0026 17.8286 56.0026 14.2V5.8C56.0026 2.17143 53.9759 0 50.5893 0ZM51.5759 12.8286C51.8693 13.2 52.0293 13.6 52.0293 14.0857C52.0293 14.4857 51.8693 14.9429 51.5759 15.2571C50.9626 15.9143 49.9226 15.9143 49.3093 15.2571L46.6693 12.4286L44.0559 15.2857C43.4426 15.9429 42.4026 15.9429 41.7626 15.2571C41.1493 14.6 41.1493 13.4857 41.7626 12.8286L44.4293 10.0286L41.7893 7.2C41.1759 6.54286 41.1493 5.42857 41.7626 4.74286C42.3759 4.05714 43.4159 4.08571 44.0559 4.77143L46.6693 7.6L49.3359 4.74286C49.9493 4.08571 50.9893 4.08571 51.6026 4.74286C51.8959 5.11429 52.0293 5.54286 52.0559 6C52.0559 6.4 51.8959 6.85714 51.6293 7.2L48.9626 10.0571L51.5759 12.8286Z" fill="#FF3030"/>
</svg>
