<svg width="20" height="18" viewBox="0 0 20 18" fill="none" xmlns="http://www.w3.org/2000/svg">
<path fill-rule="evenodd" clip-rule="evenodd" d="M0 5.6881C0 5.16461 0.407014 4.74023 0.909091 4.74023H19.0909C19.593 4.74023 20 5.16461 20 5.6881C20 6.21159 19.593 6.63596 19.0909 6.63596H0.909091C0.407014 6.63596 0 6.21159 0 5.6881Z" fill="#7D8695"/>
<path fill-rule="evenodd" clip-rule="evenodd" d="M3.63672 13.2701C3.63672 12.7466 4.04373 12.3223 4.54581 12.3223H6.36399C6.86607 12.3223 7.27308 12.7466 7.27308 13.2701C7.27308 13.7936 6.86607 14.218 6.36399 14.218H4.54581C4.04373 14.218 3.63672 13.7936 3.63672 13.2701Z" fill="#7D8695"/>
<path fill-rule="evenodd" clip-rule="evenodd" d="M7.72656 13.2701C7.72656 12.7466 8.13358 12.3223 8.63565 12.3223H12.272C12.7741 12.3223 13.1811 12.7466 13.1811 13.2701C13.1811 13.7936 12.7741 14.218 12.272 14.218H8.63565C8.13358 14.218 7.72656 13.7936 7.72656 13.2701Z" fill="#7D8695"/>
<path fill-rule="evenodd" clip-rule="evenodd" d="M2.35622 2.45482C2.04289 2.77784 1.81818 3.44065 1.81818 5.10898V12.9004C1.81818 14.5692 2.04306 15.2312 2.35561 15.5528C2.67148 15.8778 3.32186 16.109 4.94289 16.1042L4.94545 16.1042L15.0545 16.1042C16.6754 16.1042 17.3269 15.8718 17.6438 15.5451C17.9571 15.2221 18.1818 14.5593 18.1818 12.8909V5.10898C18.1818 3.44056 17.9571 2.77835 17.6432 2.45545C17.3252 2.12821 16.6713 1.89573 15.0455 1.89573H4.94545C3.32455 1.89573 2.67314 2.12811 2.35622 2.45482ZM1.07787 1.10677C1.97232 0.184675 3.33909 0 4.94545 0H15.0455C16.6559 0 18.0248 0.184572 18.9204 1.10615C19.8202 2.03206 20 3.4504 20 5.10898V12.8909C20 14.5496 19.8202 15.9674 18.9221 16.8931C18.0277 17.8152 16.6609 17.9999 15.0545 17.9999H4.94677C3.34107 18.0045 1.97374 17.8232 1.07848 16.9021C0.17967 15.9772 0 14.5586 0 12.9004V5.10898C0 3.45032 0.17984 2.03256 1.07787 1.10677Z" fill="#7D8695"/>
</svg>
