<svg width="18" height="18" viewBox="0 0 18 18" fill="none" xmlns="http://www.w3.org/2000/svg">
<path opacity="0.4" d="M12.7774 0H5.23161C1.95397 0 0 1.953 0 5.229V12.762C0 16.047 1.95397 18 5.23161 18H12.7684C16.046 18 18 16.047 18 12.771V5.229C18.009 1.953 16.055 0 12.7774 0Z" fill="#7D8695"/>
<path d="M12.5069 5.49811C11.1742 4.17511 9.01313 4.17511 7.68947 5.49811C6.76201 6.41611 6.48287 7.74811 6.84305 8.91811L4.72699 11.0331C4.58292 11.1861 4.47487 11.4831 4.51089 11.6991L4.64595 12.6801C4.69098 13.0041 4.99713 13.3101 5.32129 13.3551L6.30278 13.4991C6.51889 13.5261 6.81604 13.4361 6.96911 13.2741L7.3383 12.9051C7.42834 12.8241 7.42834 12.6801 7.3383 12.5901L6.46486 11.7171C6.3388 11.5911 6.3388 11.3751 6.46486 11.2401C6.59092 11.1141 6.80703 11.1141 6.9421 11.2401L7.81553 12.1131C7.89657 12.1941 8.04065 12.1941 8.13069 12.1131L9.08517 11.1681C10.2467 11.5281 11.5794 11.2491 12.5069 10.3311C13.8395 8.99011 13.8395 6.83011 12.5069 5.49811ZM10.1297 8.99911C9.50838 8.99911 9.00413 8.49511 9.00413 7.87411C9.00413 7.25311 9.50838 6.74911 10.1297 6.74911C10.751 6.74911 11.2552 7.25311 11.2552 7.87411C11.2552 8.49511 10.751 8.99911 10.1297 8.99911Z" fill="#7D8695"/>
</svg>
