<svg width="18" height="19" viewBox="0 0 18 19" fill="none" xmlns="http://www.w3.org/2000/svg">
<path fill-rule="evenodd" clip-rule="evenodd" d="M1.42881 7.54492C1.89539 7.54492 2.27363 7.91124 2.27363 8.36311V12.0368C2.27363 13.7925 2.64212 14.81 3.26069 15.4091C3.87926 16.0081 4.9299 16.365 6.74274 16.365H11.2963C13.1092 16.365 14.1598 16.0081 14.7784 15.4091C15.397 14.81 15.7655 13.7925 15.7655 12.0368V8.36311C15.7655 7.91124 16.1437 7.54492 16.6103 7.54492C17.0769 7.54492 17.4551 7.91124 17.4551 8.36311V12.0368C17.4551 13.9548 17.0632 15.5104 15.9732 16.5662C14.8831 17.6219 13.2767 18.0014 11.2963 18.0014H6.74274C4.76233 18.0014 3.15601 17.6219 2.06592 16.5662C0.97584 15.5104 0.583984 13.9548 0.583984 12.0368V8.36311C0.583984 7.91124 0.962224 7.54492 1.42881 7.54492Z" fill="#7D8695"/>
<path fill-rule="evenodd" clip-rule="evenodd" d="M6.21087 0.736536C6.25417 0.31838 6.61754 0 7.05147 0H10.9968C11.4312 0 11.7948 0.319063 11.8375 0.737743L12.3951 6.20325C12.5959 8.17988 11.0671 9.81828 9.01991 9.81828C6.97268 9.81828 5.44392 8.18024 5.64467 6.20361L6.21087 0.736536ZM7.8158 1.63638L7.32621 6.36379C7.32618 6.36402 7.32623 6.36356 7.32621 6.36379C7.22324 7.38141 7.97532 8.1819 9.01991 8.1819C10.0646 8.1819 10.8168 7.38192 10.7136 6.36415L10.2313 1.63638H7.8158Z" fill="#7D8695"/>
<path fill-rule="evenodd" clip-rule="evenodd" d="M10.3376 0.269137C10.4978 0.0977673 10.7253 0 10.964 0H13.5407C14.7339 0 15.7563 0.216955 16.5111 0.892173C17.2548 1.55743 17.5793 2.52775 17.7399 3.65146C17.7413 3.66121 17.7425 3.671 17.7435 3.6808L17.9803 5.93269C18.1986 8.05713 16.5596 9.81828 14.3517 9.81828C12.5248 9.81828 10.903 8.40491 10.715 6.63756L10.7147 6.635L10.1233 0.899488C10.0996 0.66949 10.1775 0.440507 10.3376 0.269137ZM11.8974 1.63638L12.3957 6.46985C12.3958 6.47024 12.3958 6.47062 12.3958 6.47101C12.4957 7.40317 13.3911 8.1819 14.3517 8.1819C15.5566 8.1819 16.4182 7.25981 16.299 6.09551C16.299 6.09524 16.2991 6.09577 16.299 6.09551L16.0642 3.86158C15.9204 2.86752 15.6713 2.36856 15.3646 2.09422C15.0676 1.82852 14.5609 1.63638 13.5407 1.63638H11.8974Z" fill="#7D8695"/>
<path fill-rule="evenodd" clip-rule="evenodd" d="M1.48026 0.892173C2.23505 0.216955 3.25742 0 4.45068 0H7.02739C7.26607 0 7.49362 0.0977842 7.65378 0.26918C7.81394 0.440576 7.89177 0.669588 7.86802 0.899603L7.27689 6.63267C7.27685 6.63302 7.27682 6.63337 7.27678 6.63372C7.09879 8.40558 5.47355 9.81828 3.6481 9.81828C1.4404 9.81828 -0.198468 8.05744 0.0194502 5.93325C0.0194308 5.93344 0.0194696 5.93306 0.0194502 5.93325L0.247502 3.68373C0.248595 3.67295 0.249909 3.66219 0.251443 3.65146C0.412098 2.52775 0.736598 1.55743 1.48026 0.892173ZM1.92739 3.86015L1.70085 6.09471C1.58119 7.25939 2.4429 8.1819 3.6481 8.1819C4.61019 8.1819 5.50225 7.40241 5.59513 6.47473L5.59534 6.47265L6.09387 1.63638H4.45068C3.4305 1.63638 2.92374 1.82852 2.62673 2.09422C2.3202 2.36843 2.07123 2.86704 1.92739 3.86015Z" fill="#7D8695"/>
<path fill-rule="evenodd" clip-rule="evenodd" d="M6.83885 13.0215C7.40547 12.4727 8.18696 12.2715 9.02133 12.2715C9.8557 12.2715 10.6372 12.4727 11.2038 13.0215C11.7704 13.5702 11.9782 14.3271 11.9782 15.1351V17.1806C11.9782 17.6325 11.6 17.9988 11.1334 17.9988H6.90928C6.44269 17.9988 6.06445 17.6325 6.06445 17.1806V15.1351C6.06445 14.3271 6.27224 13.5702 6.83885 13.0215ZM8.03361 14.1786C7.89691 14.311 7.7541 14.5768 7.7541 15.1351V16.3624H10.2886V15.1351C10.2886 14.5768 10.1458 14.311 10.0091 14.1786C9.87235 14.0462 9.59782 13.9079 9.02133 13.9079C8.44485 13.9079 8.17032 14.0462 8.03361 14.1786Z" fill="#7D8695"/>
</svg>
