<svg width="19" height="18" viewBox="0 0 19 18" fill="none" xmlns="http://www.w3.org/2000/svg">
<path fill-rule="evenodd" clip-rule="evenodd" d="M2.72627 2.72627C2.03433 3.41821 1.63636 4.5807 1.63636 6.54545V11.4545C1.63636 13.4193 2.03433 14.5818 2.72627 15.2737C3.41821 15.9657 4.5807 16.3636 6.54545 16.3636H11.4545C13.4193 16.3636 14.5818 15.9657 15.2737 15.2737C15.9657 14.5818 16.3636 13.4193 16.3636 11.4545V7.36364C16.3636 6.91177 16.7299 6.54545 17.1818 6.54545C17.6337 6.54545 18 6.91177 18 7.36364V11.4545C18 13.5807 17.5798 15.2818 16.4308 16.4308C15.2818 17.5798 13.5807 18 11.4545 18H6.54545C4.4193 18 2.71815 17.5798 1.56919 16.4308C0.420219 15.2818 0 13.5807 0 11.4545V6.54545C0 4.4193 0.420219 2.71815 1.56919 1.56919C2.71815 0.420219 4.4193 0 6.54545 0H10.6364C11.0882 0 11.4545 0.366312 11.4545 0.818182C11.4545 1.27005 11.0882 1.63636 10.6364 1.63636H6.54545C4.5807 1.63636 3.41821 2.03433 2.72627 2.72627Z" fill="#7D8695"/>
<path fill-rule="evenodd" clip-rule="evenodd" d="M10.3254 0.0623043C10.6311 -0.0643347 10.983 0.00566546 11.217 0.239664L17.7625 6.78512C17.9965 7.01912 18.0665 7.37103 17.9399 7.67677C17.8132 7.9825 17.5149 8.18184 17.1839 8.18184H13.9112C12.6386 8.18184 11.5299 7.9803 10.7759 7.22629C10.0219 6.47229 9.82031 5.36353 9.82031 4.09093V0.818206C9.82031 0.487282 10.0197 0.188943 10.3254 0.0623043ZM11.4567 2.79347V4.09093C11.4567 5.27288 11.6642 5.80049 11.9329 6.06921C12.2017 6.33793 12.7293 6.54548 13.9112 6.54548H15.2087L11.4567 2.79347Z" fill="#7D8695"/>
<path fill-rule="evenodd" clip-rule="evenodd" d="M4.08984 9.81818C4.08984 9.36631 4.45616 9 4.90803 9H9.81712C10.269 9 10.6353 9.36631 10.6353 9.81818C10.6353 10.2701 10.269 10.6364 9.81712 10.6364H4.90803C4.45616 10.6364 4.08984 10.2701 4.08984 9.81818Z" fill="#7D8695"/>
<path fill-rule="evenodd" clip-rule="evenodd" d="M4.08984 13.0897C4.08984 12.6378 4.45616 12.2715 4.90803 12.2715H8.18075C8.63262 12.2715 8.99894 12.6378 8.99894 13.0897C8.99894 13.5415 8.63262 13.9078 8.18075 13.9078H4.90803C4.45616 13.9078 4.08984 13.5415 4.08984 13.0897Z" fill="#7D8695"/>
</svg>
