<svg width="16" height="18" viewBox="0 0 16 18" fill="none" xmlns="http://www.w3.org/2000/svg">
<path d="M7.62051 8.78049C9.93503 8.78049 11.8113 6.81491 11.8113 4.39024C11.8113 1.96558 9.93503 0 7.62051 0C5.30598 0 3.42969 1.96558 3.42969 4.39024C3.42969 6.81491 5.30598 8.78049 7.62051 8.78049Z" fill="#7D8695"/>
<path opacity="0.4" d="M7.61893 10.9766C3.41973 10.9766 0 13.9268 0 17.5619C0 17.8078 0.184396 18.001 0.419082 18.001H14.8188C15.0535 18.001 15.2379 17.8078 15.2379 17.5619C15.2379 13.9268 11.8181 10.9766 7.61893 10.9766Z" fill="#7D8695"/>
<path d="M15.5235 11.1853C14.7692 10.395 14.1741 10.6497 13.6628 11.1853L10.6957 14.2936C10.5783 14.4165 10.4694 14.6448 10.4443 14.8116L10.285 15.997C10.2263 16.4272 10.5113 16.7258 10.922 16.6643L12.0535 16.4975C12.2128 16.4711 12.4391 16.357 12.5481 16.2341L15.5151 13.1258C16.0348 12.599 16.2779 11.9755 15.5235 11.1853Z" fill="#7D8695"/>
</svg>
