<svg width="20" height="18" viewBox="0 0 20 18" fill="none" xmlns="http://www.w3.org/2000/svg">
<path fill-rule="evenodd" clip-rule="evenodd" d="M10.0005 6.50125C8.67675 6.50125 7.60833 7.61937 7.60833 9.00475C7.60833 10.3901 8.67675 11.5083 10.0005 11.5083C11.3243 11.5083 12.3928 10.3901 12.3928 9.00475C12.3928 7.61937 11.3243 6.50125 10.0005 6.50125ZM5.75391 9.00475C5.75391 6.54755 7.65258 4.56055 10.0005 4.56055C12.3485 4.56055 14.2472 6.54755 14.2472 9.00475C14.2472 11.462 12.3485 13.449 10.0005 13.449C7.65258 13.449 5.75391 11.462 5.75391 9.00475Z" fill="#7D8695"/>
<path fill-rule="evenodd" clip-rule="evenodd" d="M0.771126 5.96049C3.01921 2.26234 6.33383 0 10 0C13.6664 0 16.9812 2.2626 19.2293 5.96113C19.7639 6.83843 20 7.94865 20 9C20 10.0516 19.7638 11.1621 19.2289 12.0395C16.9808 15.7377 13.6662 18 10 18C6.33361 18 3.01883 15.7374 0.770739 12.0389C0.23608 11.1616 0 10.0513 0 9C0 7.9484 0.236194 6.83789 0.771126 5.96049ZM10 1.9407C7.12026 1.9407 4.33398 3.71476 2.33543 7.00275L2.33465 7.00402C2.03537 7.49472 1.85443 8.21789 1.85443 9C1.85443 9.78211 2.03537 10.5053 2.33465 10.996L2.33543 10.9972C4.33398 14.2852 7.12026 16.0593 10 16.0593C12.8797 16.0593 15.666 14.2852 17.6646 10.9972L17.6653 10.996C17.9646 10.5053 18.1456 9.78211 18.1456 9C18.1456 8.21789 17.9646 7.49472 17.6653 7.00402L17.6646 7.00275C15.666 3.71476 12.8797 1.9407 10 1.9407Z" fill="#7D8695"/>
</svg>
