<svg width="16" height="18" viewBox="0 0 16 18" fill="none" xmlns="http://www.w3.org/2000/svg">
<path opacity="0.4" d="M16 4.5V11.7H2.68235C1.20471 11.7 0 12.852 0 14.265V4.5C0 0.9 0.941176 0 4.70588 0H11.2941C15.0588 0 16 0.9 16 4.5Z" fill="#7D8695"/>
<path d="M16 11.6992V14.8492C16 16.5862 14.5224 17.9992 12.7059 17.9992H3.29412C1.47765 17.9992 0 16.5862 0 14.8492V14.2642C0 12.8512 1.20471 11.6992 2.68235 11.6992H16Z" fill="#7D8695"/>
<path d="M11.7665 5.17422H4.23713C3.85125 5.17422 3.53125 4.86822 3.53125 4.49922C3.53125 4.13022 3.85125 3.82422 4.23713 3.82422H11.7665C12.1524 3.82422 12.4724 4.13022 12.4724 4.49922C12.4724 4.86822 12.1524 5.17422 11.7665 5.17422Z" fill="#7D8695"/>
<path d="M8.94301 8.32461H4.23713C3.85125 8.32461 3.53125 8.01861 3.53125 7.64961C3.53125 7.28061 3.85125 6.97461 4.23713 6.97461H8.94301C9.3289 6.97461 9.6489 7.28061 9.6489 7.64961C9.6489 8.01861 9.3289 8.32461 8.94301 8.32461Z" fill="#7D8695"/>
</svg>
