<svg width="18" height="18" viewBox="0 0 18 18" fill="none" xmlns="http://www.w3.org/2000/svg">
<path fill-rule="evenodd" clip-rule="evenodd" d="M4.95078 16.2514C5.41531 16.3258 5.94386 16.3635 6.5455 16.3635H11.4546C12.0562 16.3635 12.5848 16.3258 13.0493 16.2514C12.5579 14.96 11.0264 13.8844 9.00005 13.8844C6.97368 13.8844 5.44218 14.96 4.95078 16.2514ZM3.16114 16.8018C3.388 14.1208 6.06038 12.248 9.00005 12.248C11.9397 12.248 14.6121 14.1208 14.839 16.8018C14.8717 17.1888 14.6279 17.5454 14.2555 17.6554C13.4365 17.8974 12.5019 17.9999 11.4546 17.9999H6.5455C5.49824 17.9999 4.56363 17.8974 3.74458 17.6554C3.37217 17.5454 3.1284 17.1888 3.16114 16.8018Z" fill="#7D8695"/>
<path fill-rule="evenodd" clip-rule="evenodd" d="M1.56919 1.56919C2.71815 0.420219 4.4193 0 6.54545 0H11.4545C13.5807 0 15.2818 0.420219 16.4308 1.56919C17.5798 2.71815 18 4.4193 18 6.54545V11.4545C18 13.0671 17.7598 14.4284 17.1464 15.4943C16.5138 16.5939 15.534 17.2937 14.2465 17.6581C14.0115 17.7247 13.759 17.6827 13.5581 17.5437C13.3572 17.4048 13.229 17.1833 13.2084 16.9399C13.0752 15.3664 11.3785 13.8845 9 13.8845C6.62148 13.8845 4.92477 15.3664 4.79163 16.9399C4.77104 17.1833 4.64277 17.4048 4.44189 17.5437C4.24101 17.6827 3.98854 17.7247 3.7535 17.6581C2.46603 17.2937 1.48624 16.5939 0.853555 15.4943C0.240249 14.4284 0 13.0671 0 11.4545V6.54545C0 4.4193 0.420219 2.71815 1.56919 1.56919ZM2.72627 2.72627C2.03433 3.41821 1.63636 4.5807 1.63636 6.54545V11.4545C1.63636 12.9348 1.86248 13.9666 2.2719 14.6782C2.5343 15.1343 2.89141 15.4926 3.38263 15.7592C4.11714 13.6477 6.4587 12.2482 9 12.2482C11.5413 12.2482 13.8829 13.6477 14.6174 15.7592C15.1086 15.4926 15.4657 15.1343 15.7281 14.6782C16.1375 13.9666 16.3636 12.9348 16.3636 11.4545V6.54545C16.3636 4.5807 15.9657 3.41821 15.2737 2.72627C14.5818 2.03433 13.4193 1.63636 11.4545 1.63636H6.54545C4.5807 1.63636 3.41821 2.03433 2.72627 2.72627ZM9 5.72727C7.83187 5.72727 6.88909 6.67006 6.88909 7.8382C6.88909 9.00929 7.83483 9.95726 9 9.95726C10.1652 9.95726 11.1109 9.00929 11.1109 7.8382C11.1109 6.67006 10.1681 5.72727 9 5.72727ZM5.25273 7.8382C5.25273 5.76633 6.92813 4.09091 9 4.09091C11.0719 4.09091 12.7473 5.76633 12.7473 7.8382C12.7473 9.9071 11.0748 11.5936 9 11.5936C6.92517 11.5936 5.25273 9.9071 5.25273 7.8382Z" fill="#7D8695"/>
<path fill-rule="evenodd" clip-rule="evenodd" d="M8.99781 5.52219C7.71671 5.52219 6.68235 6.55656 6.68235 7.83766C6.68235 9.12098 7.71893 10.1613 8.99781 10.1613C10.2767 10.1613 11.3133 9.12098 11.3133 7.83766C11.3133 6.55656 10.2789 5.52219 8.99781 5.52219ZM5.45508 7.83766C5.45508 5.87876 7.0389 4.29492 8.99781 4.29492C10.9567 4.29492 12.5405 5.87876 12.5405 7.83766C12.5405 9.79434 10.9589 11.3885 8.99781 11.3885C7.03669 11.3885 5.45508 9.79434 5.45508 7.83766Z" fill="#7D8695"/>
</svg>
