<svg width="16" height="18" viewBox="0 0 16 18" fill="none" xmlns="http://www.w3.org/2000/svg">
<path fill-rule="evenodd" clip-rule="evenodd" d="M8.00092 5.88478C7.02766 5.88478 6.23867 6.66154 6.23867 7.61972C6.23867 8.5779 7.02766 9.35466 8.00092 9.35466C8.97419 9.35466 9.76317 8.5779 9.76317 7.61972C9.76317 6.66154 8.97419 5.88478 8.00092 5.88478ZM4.57617 7.61972C4.57617 5.7576 6.10949 4.24805 8.00092 4.24805C9.89236 4.24805 11.4257 5.7576 11.4257 7.61972C11.4257 9.48185 9.89236 10.9914 8.00092 10.9914C6.10949 10.9914 4.57617 9.48185 4.57617 7.61972Z" fill="#7D8695"/>
<path fill-rule="evenodd" clip-rule="evenodd" d="M8.00256 1.63674C5.24053 1.6349 2.56182 3.20837 1.84477 6.31067C0.991928 10.0206 3.32323 13.2639 5.57534 15.401C6.93359 16.6849 9.06741 16.6828 10.4152 15.4021L10.4168 15.4006C12.6771 13.2636 15.0082 10.0282 14.1551 6.31845L14.1551 6.31841C13.4419 3.21587 10.7648 1.63858 8.00256 1.63674ZM15.7766 5.95711C14.8606 1.97259 11.3906 0.00225575 8.00369 1.93585e-06C4.61668 -0.00225192 1.14425 1.96357 0.223587 5.94805L0.223393 5.94889C-0.83529 10.553 2.08626 14.3636 4.42235 16.5802L4.4234 16.5812C6.42314 18.4719 9.5752 18.4742 11.5689 16.5806C13.9136 14.3637 16.8354 10.5615 15.7766 5.95711Z" fill="#7D8695"/>
</svg>
