<svg width="18" height="18" viewBox="0 0 18 18" fill="none" xmlns="http://www.w3.org/2000/svg">
<path fill-rule="evenodd" clip-rule="evenodd" d="M5.64925 2.77042C5.11468 3.43404 4.9098 4.42213 4.9098 5.72727V7.36364C4.9098 7.81551 4.54349 8.18182 4.09162 8.18182C3.63975 8.18182 3.27344 7.81551 3.27344 7.36364V5.72727C3.27344 4.32424 3.47765 2.85778 4.3749 1.7439C5.30294 0.591807 6.81522 0 9.00071 0C11.1862 0 12.6985 0.591807 13.6265 1.7439C14.5238 2.85778 14.728 4.32424 14.728 5.72727V7.36364C14.728 7.81551 14.3617 8.18182 13.9098 8.18182C13.4579 8.18182 13.0916 7.81551 13.0916 7.36364V5.72727C13.0916 4.42213 12.8867 3.43404 12.3522 2.77042C11.8484 2.14501 10.9061 1.63636 9.00071 1.63636C7.09529 1.63636 6.15302 2.14501 5.64925 2.77042Z" fill="#7D8695"/>
<path fill-rule="evenodd" clip-rule="evenodd" d="M9.00231 11.0465C8.3245 11.0465 7.77504 11.596 7.77504 12.2738C7.77504 12.9516 8.3245 13.5011 9.00231 13.5011C9.68011 13.5011 10.2296 12.9516 10.2296 12.2738C10.2296 11.596 9.68011 11.0465 9.00231 11.0465ZM6.13867 12.2738C6.13867 10.6922 7.42077 9.41016 9.00231 9.41016C10.5839 9.41016 11.8659 10.6922 11.8659 12.2738C11.8659 13.8553 10.5839 15.1374 9.00231 15.1374C7.42077 15.1374 6.13867 13.8553 6.13867 12.2738Z" fill="#7D8695"/>
<path fill-rule="evenodd" clip-rule="evenodd" d="M2.21491 8.75983C1.86146 9.11328 1.63636 9.8118 1.63636 11.454V13.0904C1.63636 14.7326 1.86146 15.4311 2.21491 15.7846C2.56835 16.138 3.26688 16.3631 4.90909 16.3631H13.0909C14.7331 16.3631 15.4316 16.138 15.7851 15.7846C16.1385 15.4311 16.3636 14.7326 16.3636 13.0904V11.454C16.3636 9.8118 16.1385 9.11328 15.7851 8.75983C15.4316 8.40638 14.7331 8.18129 13.0909 8.18129H4.90909C3.26688 8.18129 2.56835 8.40638 2.21491 8.75983ZM1.05782 7.60274C1.93165 6.72892 3.27857 6.54492 4.90909 6.54492H13.0909C14.7214 6.54492 16.0684 6.72892 16.9422 7.60274C17.816 8.47657 18 9.8235 18 11.454V13.0904C18 14.7209 17.816 16.0678 16.9422 16.9416C16.0684 17.8155 14.7214 17.9995 13.0909 17.9995H4.90909C3.27857 17.9995 1.93165 17.8155 1.05782 16.9416C0.183997 16.0678 0 14.7209 0 13.0904V11.454C0 9.8235 0.183997 8.47657 1.05782 7.60274Z" fill="#7D8695"/>
</svg>
