<svg width="18" height="18" viewBox="0 0 18 18" fill="none" xmlns="http://www.w3.org/2000/svg">
<path fill-rule="evenodd" clip-rule="evenodd" d="M5.14285 3.68129C4.62405 3.68129 4.20059 3.69769 3.84122 3.7467C3.83214 3.74794 3.82305 3.74903 3.81394 3.74999C2.80036 3.85668 2.39022 4.11226 2.15907 4.4473C1.87713 4.85597 1.71428 5.57937 1.71428 6.95401V11.0449C1.71428 12.4196 1.87713 13.143 2.15907 13.5516C2.39022 13.8867 2.80036 14.1423 3.81394 14.2489C3.82305 14.2499 3.83214 14.251 3.84122 14.2522C4.20059 14.3012 4.62405 14.3176 5.14285 14.3176H8.15999C8.63338 14.3176 9.01714 14.684 9.01714 15.1358C9.01714 15.5877 8.63338 15.954 8.15999 15.954H5.14285C4.60399 15.954 4.08931 15.938 3.61254 15.874C2.37794 15.7422 1.36175 15.3712 0.727353 14.4516C0.141438 13.6023 0 12.4357 0 11.0449V6.95401C0 5.5632 0.141438 4.3966 0.727353 3.54732C1.36175 2.62776 2.37793 2.25678 3.61253 2.12492C4.0893 2.06093 4.60398 2.04492 5.14285 2.04492H8.10856C8.58195 2.04492 8.96571 2.41123 8.96571 2.8631C8.96571 3.31497 8.58195 3.68129 8.10856 3.68129H5.14285Z" fill="#7D8695"/>
<path fill-rule="evenodd" clip-rule="evenodd" d="M10.7305 2.8631C10.7305 2.41123 11.1142 2.04492 11.5876 2.04492H12.8562C13.395 2.04492 13.9097 2.06093 14.3865 2.12492C15.6211 2.25678 16.6373 2.62776 17.2717 3.54732C17.8576 4.3966 17.999 5.5632 17.999 6.95401V11.0449C17.999 12.4357 17.8576 13.6023 17.2717 14.4516C16.6373 15.3712 15.6211 15.7422 14.3865 15.874C13.9097 15.938 13.395 15.954 12.8562 15.954H11.5876C11.1142 15.954 10.7305 15.5877 10.7305 15.1358C10.7305 14.684 11.1142 14.3176 11.5876 14.3176H12.8562C13.375 14.3176 13.7984 14.3012 14.1578 14.2522C14.1669 14.251 14.176 14.2499 14.1851 14.2489C15.1987 14.1423 15.6088 13.8867 15.84 13.5516C16.1219 13.143 16.2847 12.4196 16.2847 11.0449V6.95401C16.2847 5.57937 16.1219 4.85597 15.84 4.4473C15.6088 4.11226 15.1987 3.85668 14.1851 3.74999C14.176 3.74903 14.1669 3.74794 14.1578 3.7467C13.7984 3.69769 13.375 3.68129 12.8562 3.68129H11.5876C11.1142 3.68129 10.7305 3.31497 10.7305 2.8631Z" fill="#7D8695"/>
<path fill-rule="evenodd" clip-rule="evenodd" d="M11.572 0C12.0454 0 12.4291 0.366312 12.4291 0.818182V17.1818C12.4291 17.6337 12.0454 18 11.572 18C11.0986 18 10.7148 17.6337 10.7148 17.1818V0.818182C10.7148 0.366312 11.0986 0 11.572 0Z" fill="#7D8695"/>
<path fill-rule="evenodd" clip-rule="evenodd" d="M7.36914 8.99982C7.36914 8.54795 7.7529 8.18164 8.22628 8.18164H8.23398C8.70737 8.18164 9.09112 8.54795 9.09112 8.99982C9.09112 9.45169 8.70737 9.818 8.23398 9.818H8.22628C7.7529 9.818 7.36914 9.45169 7.36914 8.99982Z" fill="#7D8695"/>
<path fill-rule="evenodd" clip-rule="evenodd" d="M3.9375 8.99982C3.9375 8.54795 4.32126 8.18164 4.79464 8.18164H4.80234C5.27573 8.18164 5.65948 8.54795 5.65948 8.99982C5.65948 9.45169 5.27573 9.818 4.80234 9.818H4.79464C4.32126 9.818 3.9375 9.45169 3.9375 8.99982Z" fill="#7D8695"/>
</svg>
