<svg width="13" height="18" viewBox="0 0 13 18" fill="none" xmlns="http://www.w3.org/2000/svg">
<path fill-rule="evenodd" clip-rule="evenodd" d="M0.827701 0C1.28483 0 1.6554 0.366312 1.6554 0.818182V17.1818C1.6554 17.6337 1.28483 18 0.827701 18C0.370574 18 0 17.6337 0 17.1818V0.818182C0 0.366312 0.370574 0 0.827701 0Z" fill="#7D8695"/>
<path fill-rule="evenodd" clip-rule="evenodd" d="M0 2.4549C0 2.00303 0.370574 1.63672 0.827701 1.63672H10.0979C10.7237 1.63672 11.2922 1.72132 11.763 1.9164C12.2399 2.11402 12.6626 2.44777 12.8714 2.95367C13.0799 3.45852 13.0151 3.98873 12.8182 4.45907C12.6235 4.9243 12.2825 5.37985 11.842 5.81526L10.8488 6.79708C10.4866 7.15512 10.5465 7.66708 10.8085 7.8937C10.8224 7.90566 10.8358 7.91807 10.8488 7.9309L11.842 8.91272C12.6698 9.731 13.269 10.786 12.8349 11.7874C12.406 12.7766 11.233 13.0913 10.0979 13.0913H0.827701C0.370574 13.0913 0 12.725 0 12.2731C0 11.8212 0.370574 11.4549 0.827701 11.4549H10.0979C10.565 11.4549 10.8861 11.3871 11.0849 11.3038C11.2787 11.2225 11.3108 11.1487 11.3133 11.1428L11.3134 11.1427C11.3156 11.1377 11.3462 11.0684 11.2718 10.8821C11.1935 10.6859 11.0146 10.409 10.6715 10.0698L9.6956 9.10517C8.65704 8.18305 8.72305 6.58418 9.67822 5.64L10.6715 4.65818C11.0173 4.31631 11.204 4.03551 11.2886 3.8334C11.3297 3.73527 11.3418 3.6675 11.344 3.62746C11.3462 3.59014 11.3401 3.57522 11.3388 3.57204C11.3375 3.56898 11.3317 3.55495 11.305 3.53096C11.2761 3.50509 11.2208 3.46605 11.1229 3.42551C10.9212 3.34189 10.5895 3.27308 10.0979 3.27308H0.827701C0.370574 3.27308 0 2.90677 0 2.4549Z" fill="#7D8695"/>
</svg>
