<svg width="56" height="56" viewBox="0 0 56 56" fill="none" xmlns="http://www.w3.org/2000/svg">
<path opacity="0.4" d="M53.3333 19.3412V22.8555H0V18.684C0 12.1412 4.96 6.85547 11.0667 6.85547H37.3333V14.1983C37.3333 17.8269 39.36 19.9983 42.7467 19.9983H50.5867C51.6533 19.9983 52.56 19.7983 53.3333 19.3412Z" fill="#0064FA"/>
<path d="M0 22.8574V44.1717C0 50.7146 4.96 56.0003 11.0667 56.0003H42.2667C48.3733 56.0003 53.3333 50.7146 53.3333 44.1717V22.8574H0ZM16 46.4288H10.6667C9.57333 46.4288 8.66667 45.4574 8.66667 44.286C8.66667 43.1146 9.57333 42.1431 10.6667 42.1431H16C17.0933 42.1431 18 43.1146 18 44.286C18 45.4574 17.0933 46.4288 16 46.4288ZM33.3333 46.4288H22.6667C21.5733 46.4288 20.6667 45.4574 20.6667 44.286C20.6667 43.1146 21.5733 42.1431 22.6667 42.1431H33.3333C34.4267 42.1431 35.3333 43.1146 35.3333 44.286C35.3333 45.4574 34.4267 46.4288 33.3333 46.4288Z" fill="#0064FA"/>
<path d="M50.5815 0H42.7415C39.3548 0 37.3281 2.17143 37.3281 5.8V14.2C37.3281 17.8286 39.3548 20 42.7415 20H50.5815C53.9681 20 55.9948 17.8286 55.9948 14.2V5.8C55.9948 2.17143 53.9681 0 50.5815 0ZM52.3415 7L46.0215 14.9143C45.7815 15.2286 45.4081 15.4286 45.0348 15.4286C45.0081 15.4286 45.0081 15.4286 44.9815 15.4286C44.6081 15.4286 44.2615 15.2857 43.9948 15L41.0615 11.9143C40.5281 11.3429 40.5281 10.4 41.0615 9.82857C41.5948 9.25714 42.4748 9.22857 43.0081 9.82857L44.8748 11.8L50.2081 5.11429C50.7148 4.48571 51.5681 4.42857 52.1548 4.94286C52.7681 5.45714 52.8215 6.4 52.3415 7Z" fill="#0064FA"/>
</svg>
