<svg width="18" height="18" viewBox="0 0 18 18" fill="none" xmlns="http://www.w3.org/2000/svg">
<path opacity="0.4" d="M17.7197 7.52036L16.8371 11.4802C16.0805 14.9 14.5855 16.2831 11.7756 15.9989C11.3253 15.961 10.8389 15.8758 10.3166 15.7431L8.80354 15.3642C5.04795 14.4263 3.88615 12.4749 4.76876 8.51505L5.65137 4.54577C5.83149 3.74055 6.04764 3.03953 6.31783 2.46166C7.37155 0.169138 9.16379 -0.446622 12.1719 0.301763L13.6759 0.671219C17.4495 1.5996 18.6023 3.56055 17.7197 7.52036Z" fill="#7D8695"/>
<path d="M11.7747 15.9982C11.2163 16.3961 10.5138 16.7276 9.65826 17.0213L8.23528 17.5139C4.65982 18.7265 2.77752 17.7128 1.61572 13.952L0.46293 10.21C-0.689863 6.44917 0.264794 4.45979 3.84025 3.24722L5.26323 2.75461C5.63249 2.63146 5.98373 2.52725 6.31696 2.46094C6.04677 3.0388 5.83062 3.73982 5.6505 4.54505L4.76789 8.51433C3.88529 12.4741 5.04709 14.4256 8.80267 15.3635L10.3157 15.7424C10.8381 15.875 11.3244 15.9603 11.7747 15.9982Z" fill="#7D8695"/>
<path d="M13.9638 7.58706C13.9098 7.58706 13.8558 7.57758 13.7927 7.56811L9.42472 6.4029C9.06447 6.30817 8.84832 5.91977 8.93838 5.54084C9.02845 5.16191 9.3977 4.93455 9.75795 5.02929L14.126 6.19449C14.4862 6.28923 14.7023 6.67763 14.6123 7.05656C14.5402 7.36917 14.261 7.58706 13.9638 7.58706Z" fill="#7D8695"/>
<path d="M11.3221 10.7889C11.2681 10.7889 11.214 10.7794 11.151 10.7699L8.53019 10.0689C8.16994 9.97419 7.95379 9.58579 8.04385 9.20686C8.13391 8.82793 8.50317 8.60057 8.86342 8.6953L11.4842 9.39632C11.8445 9.49105 12.0606 9.87945 11.9706 10.2584C11.8985 10.5805 11.6283 10.7889 11.3221 10.7889Z" fill="#7D8695"/>
</svg>
