<svg width="16" height="18" viewBox="0 0 16 18" fill="none" xmlns="http://www.w3.org/2000/svg">
<path fill-rule="evenodd" clip-rule="evenodd" d="M6.62227 1.88955C6.62214 1.88961 6.6224 1.8895 6.62227 1.88955L2.1949 3.75727C2.06697 3.81035 1.9071 3.94029 1.77607 4.14117C1.64491 4.34225 1.5885 4.54412 1.5885 4.68415V8.27762C1.5885 11.8986 4.15645 15.3338 7.67585 16.3367C7.8006 16.3716 7.94145 16.3716 8.06619 16.3367C11.5856 15.3338 14.1535 11.8986 14.1535 8.27762L14.1536 8.27575L14.1615 4.68415C14.1615 4.68387 14.1615 4.68358 14.1615 4.6833C14.1613 4.54622 14.1048 4.34535 13.972 4.14273C13.839 3.93984 13.6776 3.80875 13.5518 3.75586L9.12771 1.88955C9.12756 1.88949 9.12786 1.88962 9.12771 1.88955C8.32746 1.55321 7.42251 1.55319 6.62227 1.88955ZM6.02218 0.373752C7.20733 -0.124584 8.54265 -0.124584 9.72779 0.373752L9.72863 0.374104L14.1517 2.24C14.1515 2.23991 14.1519 2.2401 14.1517 2.24C14.6292 2.44094 15.0203 2.81747 15.2882 3.22626C15.5562 3.63508 15.75 4.15003 15.75 4.68415L15.75 4.68602L15.742 8.27762C15.742 8.27802 15.742 8.27843 15.742 8.27884C15.7415 12.6623 12.6712 16.7239 8.48762 17.9152L8.48508 17.9159C8.08616 18.028 7.65589 18.028 7.25697 17.9159L7.25443 17.9152C3.07044 16.7238 0 12.6616 0 8.27762V4.68415C0 4.15297 0.189816 3.6386 0.457768 3.22782C0.725417 2.8175 1.11672 2.44051 1.59927 2.23959L6.02218 0.373752Z" fill="#7D8695"/>
<path fill-rule="evenodd" clip-rule="evenodd" d="M7.87103 6.95156C7.43238 6.95156 7.07678 7.31804 7.07678 7.77012C7.07678 8.22219 7.43238 8.58867 7.87103 8.58867C8.30968 8.58867 8.66528 8.22219 8.66528 7.77012C8.66528 7.31804 8.30968 6.95156 7.87103 6.95156ZM5.48828 7.77012C5.48828 6.41389 6.55508 5.31445 7.87103 5.31445C9.18699 5.31445 10.2538 6.41389 10.2538 7.77012C10.2538 9.12634 9.18699 10.2258 7.87103 10.2258C6.55508 10.2258 5.48828 9.12634 5.48828 7.77012Z" fill="#7D8695"/>
<path fill-rule="evenodd" clip-rule="evenodd" d="M7.87238 8.58984C8.31103 8.58984 8.66663 8.95632 8.66663 9.4084V11.8641C8.66663 12.3161 8.31103 12.6826 7.87238 12.6826C7.43372 12.6826 7.07812 12.3161 7.07812 11.8641V9.4084C7.07812 8.95632 7.43372 8.58984 7.87238 8.58984Z" fill="#7D8695"/>
</svg>
