<svg width="18" height="18" viewBox="0 0 18 18" fill="none" xmlns="http://www.w3.org/2000/svg">
<path d="M16.7333 14.8667C16.804 14.8667 16.8719 14.8386 16.9219 14.7886C16.9719 14.7386 17 14.6707 17 14.6V13.5333C17 13.4626 16.9719 13.3948 16.9219 13.3448C16.8719 13.2948 16.804 13.2667 16.7333 13.2667H15.1333V7.66667C15.1333 7.59595 15.1052 7.52809 15.0552 7.4781C15.0052 7.4281 14.9374 7.4 14.8667 7.4H13.5333V3.93333C13.5333 3.86262 13.5052 3.79476 13.4552 3.74476C13.4052 3.69476 13.3374 3.66667 13.2667 3.66667H10.8667V1.26667C10.8667 1.19595 10.8386 1.12809 10.7886 1.0781C10.7386 1.0281 10.6707 1 10.6 1H7.4C7.25274 1 7.13333 1.11941 7.13333 1.26667V3.66667H4.73333C4.58607 3.66667 4.46667 3.78607 4.46667 3.93333V7.4H3.13333C2.98607 7.4 2.86667 7.51941 2.86667 7.66667V13.2667H1.26667C1.11941 13.2667 1 13.3861 1 13.5333V14.6C1 14.6707 1.0281 14.7386 1.0781 14.7886C1.1281 14.8386 1.19595 14.8667 1.26667 14.8667H1.53333V15.4H1.26667C1.11941 15.4 1 15.5194 1 15.6667V16.7333C1 16.804 1.0281 16.8719 1.0781 16.9219C1.1281 16.9719 1.19595 17 1.26667 17H16.7333C16.804 17 16.8719 16.9719 16.9219 16.9219C16.9719 16.8719 17 16.804 17 16.7333V15.6667C17 15.596 16.9719 15.5281 16.9219 15.4781C16.8719 15.4281 16.804 15.4 16.7333 15.4H16.4667V14.8667H16.7333ZM14.6 13.2667H9.26667V7.93333H10.8667V9.8C10.8667 9.87071 10.8948 9.93857 10.9448 9.98857C10.9948 10.0386 11.0626 10.0667 11.1333 10.0667H12.7333C12.804 10.0667 12.8719 10.0386 12.9219 9.98857C12.9719 9.93857 13 9.87071 13 9.8V7.93333H14.6V13.2667ZM11.4 7.93333H12.4667V9.53333H11.4V7.93333ZM13 7.4H9.26667V4.2H10.3333V5.53333C10.3333 5.60405 10.3614 5.67191 10.4114 5.7219C10.4614 5.7719 10.5293 5.8 10.6 5.8H11.6667C11.7374 5.8 11.8052 5.7719 11.8552 5.7219C11.9052 5.67191 11.9333 5.60405 11.9333 5.53333V4.2H13V7.4ZM10.8667 4.2H11.4V5.26667H10.8667V4.2ZM8.73333 1.53333H9.26667V2.06667H8.73333V1.53333ZM7.66667 1.53333H8.2V2.33333C8.2 2.40405 8.2281 2.47191 8.2781 2.5219C8.32809 2.5719 8.39595 2.6 8.46667 2.6H9.53333C9.60405 2.6 9.67191 2.5719 9.7219 2.5219C9.7719 2.4719 9.8 2.40405 9.8 2.33333V1.53333H10.3333V3.66667H7.66667V1.53333ZM6.6 4.2H7.13333V5.26667H6.6V4.2ZM5 4.2H6.06667V5.53333C6.06667 5.60405 6.09476 5.67191 6.14476 5.7219C6.19476 5.7719 6.26262 5.8 6.33333 5.8H7.4C7.47071 5.8 7.53857 5.7719 7.58857 5.7219C7.63857 5.67191 7.66667 5.60405 7.66667 5.53333V4.2H8.73333V7.4H5V4.2ZM5.53333 7.93333H6.6V9.53333H5.53333V7.93333ZM3.4 7.93333H5V9.8C5 9.87071 5.0281 9.93857 5.07809 9.98857C5.1281 10.0386 5.19595 10.0667 5.26667 10.0667H6.86667C6.93738 10.0667 7.00524 10.0386 7.05524 9.98857C7.10524 9.93857 7.13333 9.87071 7.13333 9.8V7.93333H8.73333V13.2667H3.4V7.93333ZM1.53333 13.8H16.4667V14.3333H1.53333V13.8ZM3.13333 15.4V14.8667H14.8667V15.4H3.13333ZM2.06667 14.8667H2.6V15.4H2.06667V14.8667ZM16.4667 16.4667H1.53333V15.9333H16.4667V16.4667ZM15.9333 15.4H15.4V14.8667H15.9333V15.4Z" fill="#7D8695" stroke="#7D8695" stroke-width="0.5"/>
</svg>
