<svg width="56" height="56" viewBox="0 0 56 56" fill="none" xmlns="http://www.w3.org/2000/svg">
<path opacity="0.4" d="M28 56C43.464 56 56 43.464 56 28C56 12.536 43.464 0 28 0C12.536 0 0 12.536 0 28C0 43.464 12.536 56 28 56Z" fill="#169401"/>
<path d="M34.3269 28.2809L30.0989 26.7969V17.3049H31.1069C33.3749 17.3049 35.2229 19.2929 35.2229 21.7289C35.2229 22.8769 36.1749 23.8289 37.3229 23.8289C38.4709 23.8289 39.4229 22.8769 39.4229 21.7289C39.4229 16.9689 35.6989 13.1049 31.1069 13.1049H30.0989V11.4809C30.0989 10.3329 29.1469 9.38086 27.9989 9.38086C26.8509 9.38086 25.8989 10.3329 25.8989 11.4809V13.1049H24.0789C19.9349 13.1049 16.5469 16.6049 16.5469 20.8889C16.5469 25.9009 19.4589 27.4969 21.6709 28.2809L25.8989 29.7649V39.2289H24.8909C22.6229 39.2289 20.7749 37.2409 20.7749 34.8049C20.7749 33.6569 19.8229 32.7049 18.6749 32.7049C17.5269 32.7049 16.5749 33.6569 16.5749 34.8049C16.5749 39.5649 20.2989 43.4289 24.8909 43.4289H25.8989V45.0809C25.8989 46.2289 26.8509 47.1809 27.9989 47.1809C29.1469 47.1809 30.0989 46.2289 30.0989 45.0809V43.4569H31.9189C36.0629 43.4569 39.4509 39.9569 39.4509 35.6729C39.4229 30.6329 36.5109 29.0369 34.3269 28.2809ZM23.0709 24.3329C21.6429 23.8289 20.7749 23.3529 20.7749 20.9169C20.7749 18.9289 22.2589 17.3329 24.1069 17.3329H25.9269V25.3409L23.0709 24.3329ZM31.9189 39.2569H30.0989V31.2489L32.9269 32.2289C34.3549 32.7329 35.2229 33.2089 35.2229 35.6449C35.2229 37.6329 33.7389 39.2569 31.9189 39.2569Z" fill="#169401"/>
</svg>
