<svg width="18" height="18" viewBox="0 0 18 18" fill="none" xmlns="http://www.w3.org/2000/svg">
<path fill-rule="evenodd" clip-rule="evenodd" d="M9 1C8.96711 1 8.93436 1.00579 8.90357 1.01724L1.17722 3.91297C1.0702 3.95386 0.999633 4.05695 1 4.17161V16.7251C1.00062 16.8768 1.12365 16.9996 1.27537 17H16.723C16.8754 17.0005 16.9994 16.8775 17 16.7251V4.17161C17.0001 4.05645 16.9288 3.95337 16.8212 3.91297L9.09704 1.01724C9.066 1.00579 9.03313 0.999879 9 1ZM8.99889 1.569L16.4484 4.36337V16.4474H15.1392V5.74212C15.1388 5.59014 15.0158 5.4671 14.8638 5.46673H3.13417C2.98245 5.46735 2.85979 5.59039 2.85942 5.74212V16.4474H1.55227V4.36337L8.99889 1.569ZM7.46774 3.64029C7.31614 3.6409 7.19348 3.76357 7.19286 3.91505C7.19262 3.98821 7.22144 4.05853 7.27292 4.11051C7.32452 4.16235 7.39447 4.19179 7.46774 4.19204H10.5307C10.6043 4.19228 10.6749 4.16322 10.7268 4.11124C10.7788 4.05927 10.8079 3.98858 10.8076 3.91505C10.8074 3.84189 10.7781 3.77181 10.7261 3.72033C10.6741 3.66873 10.6038 3.64003 10.5307 3.64028L7.46774 3.64029ZM3.41115 6.01923H14.5891V16.4474H13.2227V12.7758C13.2221 12.6244 13.0994 12.5017 12.948 12.5011H11.2497V8.82892C11.2491 8.67657 11.125 8.55353 10.9727 8.55415H7.02614C6.8738 8.55354 6.74979 8.67657 6.74917 8.82892V12.5011H5.05311C4.90077 12.5005 4.77675 12.6235 4.77613 12.7758V16.4474H3.41136L3.41115 6.01923ZM7.30065 9.10448H8.0765V10.3954C8.07601 10.5478 8.19891 10.6718 8.35138 10.6724H9.64658C9.7201 10.6727 9.79067 10.6436 9.84276 10.5916C9.89473 10.5396 9.92379 10.4689 9.92355 10.3954V9.10448H10.6973V12.5011H7.30059L7.30065 9.10448ZM8.62665 9.10448H9.37185V10.1202H8.62665V9.10448ZM5.32765 13.0528H6.10142V14.3438C6.10191 14.4961 6.22593 14.6192 6.37827 14.6187H7.67359C7.82507 14.618 7.94773 14.4953 7.94834 14.3438V13.0528H8.72419V16.4472H5.32778L5.32765 13.0528ZM6.65315 13.0528H7.39882V14.0669H6.65315V13.0528ZM9.27592 13.0528H10.0502V14.3438C10.0508 14.4954 10.1735 14.618 10.3249 14.6187H11.6203C11.7726 14.6192 11.8965 14.4961 11.8971 14.3438V13.0528H12.6708V16.4472H9.27592V13.0528ZM10.6019 13.0528H11.3449V14.0669H10.6019V13.0528Z" fill="#7D8695" stroke="#7D8695" stroke-width="0.5"/>
</svg>
